<svg width="334" height="67" viewBox="0 0 334 67" fill="none" xmlns="http://www.w3.org/2000/svg">
<path fill-rule="evenodd" clip-rule="evenodd" d="M334 0H0V26.1844L25.142 26.1844L33 2L40.858 26.1844L66.287 26.1844L45.7145 41.1312L53.5725 65.3156L33 50.3688L12.4275 65.3156L20.2855 41.1312L0 26.3929V67H334V26.3929L313.714 41.1312L321.572 65.3156L301 50.3688L280.428 65.3156L288.285 41.1312L267.713 26.1844L293.142 26.1844L301 2L308.858 26.1844L334 26.1844V0ZM100 2L107.858 26.1844L133.287 26.1844L112.714 41.1312L120.572 65.3156L100 50.3688L79.4275 65.3156L87.2855 41.1312L66.713 26.1844L92.142 26.1844L100 2ZM174.858 26.1844L167 2L159.142 26.1844L133.713 26.1844L154.286 41.1312L146.428 65.3156L167 50.3688L187.572 65.3156L179.714 41.1312L200.287 26.1844L174.858 26.1844ZM234 2L241.858 26.1844L267.287 26.1844L246.714 41.1312L254.572 65.3156L234 50.3688L213.428 65.3156L221.286 41.1312L200.713 26.1844L226.142 26.1844L234 2Z" fill="#393E3D"/>
</svg>
