<svg width="123" height="123" viewBox="0 0 123 123" fill="none" xmlns="http://www.w3.org/2000/svg">
<g clip-path="url(#clip0_9_17)">
<path fill-rule="evenodd" clip-rule="evenodd" d="M17.46 49.63L8.22001 33.62C7.42001 32.23 7.9 30.46 9.29 29.66C9.75 29.4 10.24 29.27 10.74 29.27V29.26H29.26V10.66C29.26 9.05 30.57 7.74 32.18 7.74C32.79 7.74 33.35 7.93 33.82 8.24L49.64 17.44L58.93 1.44C59.74 0.0500026 61.52 -0.419998 62.9 0.380002C63.36 0.650003 63.72 1.02 63.97 1.46L73.25 17.44L89.25 8.13C90.64 7.32 92.42 7.8 93.22 9.19C93.49 9.65 93.61 10.15 93.61 10.65L93.62 29.25H112.22C113.83 29.25 115.14 30.56 115.14 32.17C115.14 32.78 114.95 33.34 114.64 33.81L105.44 49.63L121.44 58.92C122.83 59.73 123.3 61.51 122.5 62.89C122.23 63.35 121.86 63.71 121.42 63.96L105.44 73.24L114.75 89.24C115.56 90.63 115.08 92.41 113.69 93.21C113.23 93.48 112.73 93.6 112.23 93.6L93.63 93.61V112.13C93.63 113.74 92.32 115.05 90.71 115.05C90.08 115.05 89.5 114.85 89.02 114.51L73.25 105.41L63.96 121.42C63.15 122.81 61.37 123.28 59.99 122.48C59.53 122.21 59.17 121.84 58.92 121.4L49.64 105.41L33.63 114.65C32.24 115.45 30.47 114.97 29.67 113.58C29.41 113.12 29.28 112.63 29.28 112.13H29.27V93.62H10.74C9.13 93.62 7.82 92.31 7.82 90.7C7.82 90.07 8.02 89.49 8.36 89.01L17.46 73.24L1.45 63.96C0.0600047 63.15 -0.409995 61.37 0.390005 59.99C0.660005 59.53 1.03 59.17 1.47 58.92L17.46 49.63ZM44.67 40.46C48.26 40.46 51.15 41.48 53.34 43.53C55.52 45.58 56.61 48.3 56.61 51.69C56.61 55.09 55.52 57.81 53.34 59.86C51.15 61.91 48.26 62.93 44.67 62.93C41.08 62.93 38.2 61.9 36.01 59.86C33.83 57.81 32.73 55.09 32.73 51.69C32.73 48.3 33.83 45.57 36.01 43.53C38.2 41.48 41.08 40.46 44.67 40.46ZM70.87 42.06H80.59L52.13 80.77H42.41L70.87 42.06ZM44.67 49.13C43.89 49.13 43.3 49.36 42.89 49.8C42.48 50.25 42.27 50.88 42.27 51.7C42.27 52.52 42.48 53.16 42.89 53.61C43.3 54.05 43.89 54.28 44.67 54.28C45.45 54.28 46.05 54.05 46.46 53.61C46.87 53.15 47.07 52.52 47.07 51.7C47.07 50.88 46.87 50.25 46.46 49.8C46.06 49.36 45.46 49.13 44.67 49.13ZM78.2 59.93C81.79 59.93 84.67 60.96 86.86 63C89.04 65.05 90.14 67.77 90.14 71.17C90.14 74.56 89.04 77.29 86.86 79.33C84.67 81.38 81.79 82.4 78.2 82.4C74.61 82.4 71.72 81.38 69.53 79.33C67.35 77.28 66.26 74.56 66.26 71.17C66.26 67.77 67.35 65.05 69.53 63C71.72 60.96 74.61 59.93 78.2 59.93ZM78.2 68.6C77.42 68.6 76.82 68.83 76.41 69.27C76 69.73 75.79 70.35 75.79 71.18C75.79 72 76 72.63 76.41 73.08C76.82 73.53 77.42 73.75 78.2 73.75C78.97 73.75 79.57 73.52 79.98 73.08C80.39 72.63 80.6 72 80.6 71.18C80.6 70.35 80.39 69.72 79.98 69.27C79.58 68.82 78.98 68.6 78.2 68.6Z" fill="white"/>
</g>
<defs>
<clipPath id="clip0_9_17">
<rect width="122.88" height="122.88" fill="white"/>
</clipPath>
</defs>
</svg>
