<svg width="100" height="70" viewBox="0 0 100 70" fill="none" xmlns="http://www.w3.org/2000/svg">
<g clip-path="url(#clip0_22_6)">
<path d="M0 5C0 2.23858 2.23858 0 5 0H95C97.7614 0 100 2.23858 100 5C100 7.76142 97.7614 10 95 10H5C2.23858 10 0 7.76142 0 5Z" fill="black"/>
<path d="M10 35C10 32.2386 11.7909 30 14 30H86C88.2091 30 90 32.2386 90 35C90 37.7614 88.2091 40 86 40H14C11.7909 40 10 37.7614 10 35Z" fill="black"/>
<path d="M20 65C20 62.2386 21.3431 60 23 60H77C78.6568 60 80 62.2386 80 65C80 67.7614 78.6568 70 77 70H23C21.3431 70 20 67.7614 20 65Z" fill="black"/>
</g>
<defs>
<clipPath id="clip0_22_6">
<rect width="100" height="70" fill="white"/>
</clipPath>
</defs>
</svg>
