<svg width="100" height="100" viewBox="0 0 100 100" fill="none" xmlns="http://www.w3.org/2000/svg">
<g clip-path="url(#clip0_23_11)">
<path d="M55 77.5C55 65.0736 56.0074 55 57.25 55H97.75C98.9926 55 100 65.0736 100 77.5C100 89.9264 98.9926 100 97.75 100H57.25C56.0074 100 55 89.9264 55 77.5Z" fill="white"/>
<path d="M0 77.5C0 65.0736 1.00736 55 2.25 55H42.75C43.9926 55 45 65.0736 45 77.5C45 89.9264 43.9926 100 42.75 100H2.25C1.00736 100 0 89.9264 0 77.5Z" fill="white"/>
<path d="M55 22.5C55 10.0736 56.0074 0 57.25 0H97.75C98.9926 0 100 10.0736 100 22.5C100 34.9264 98.9926 45 97.75 45H57.25C56.0074 45 55 34.9264 55 22.5Z" fill="white"/>
<path d="M0 22.5C0 10.0736 1.00736 0 2.25 0H42.75C43.9926 0 45 10.0736 45 22.5C45 34.9264 43.9926 45 42.75 45H2.25C1.00736 45 0 34.9264 0 22.5Z" fill="white"/>
</g>
<defs>
<clipPath id="clip0_23_11">
<rect width="100" height="100" fill="white"/>
</clipPath>
</defs>
</svg>
