<svg width="100" height="90" viewBox="0 0 100 90" fill="none" xmlns="http://www.w3.org/2000/svg">
<g clip-path="url(#clip0_1_3)">
<path d="M0 5C0 2.23858 2.23858 0 5 0H95C97.7614 0 100 2.23858 100 5C100 7.76142 97.7614 10 95 10H5C2.23858 10 0 7.76142 0 5Z" fill="black"/>
<path d="M20 45C20 42.2386 21.7909 40 24 40H96C98.2091 40 100 42.2386 100 45C100 47.7614 98.2091 50 96 50H24C21.7909 50 20 47.7614 20 45Z" fill="black"/>
<path d="M40 85C40 82.2386 41.3431 80 43 80H97C98.6568 80 100 82.2386 100 85C100 87.7614 98.6568 90 97 90H43C41.3431 90 40 87.7614 40 85Z" fill="black"/>
</g>
<defs>
<clipPath id="clip0_1_3">
<rect width="100" height="90" fill="white"/>
</clipPath>
</defs>
</svg>
