<svg width="123" height="108" viewBox="0 0 123 108" fill="none" xmlns="http://www.w3.org/2000/svg">
<g clip-path="url(#clip0_8_11)">
<path fill-rule="evenodd" clip-rule="evenodd" d="M60.83 17.19C68.84 8.83998 74.45 1.61998 86.79 0.20998C109.96 -2.45002 131.27 21.27 119.57 44.62C116.24 51.27 109.46 59.18 101.96 66.94C93.73 75.46 84.62 83.81 78.24 90.14L60.84 107.4L46.46 93.56C29.16 76.9 0.950023 55.93 0.0200225 29.95C-0.629977 11.75 13.73 0.0899795 30.25 0.29998C45.01 0.49998 51.22 7.83998 60.83 17.19ZM39.31 51.36C38.2 50.29 37.62 48.87 37.59 47.43C37.56 46 38.08 44.55 39.15 43.44C40.22 42.33 41.64 41.75 43.07 41.72C44.5 41.69 45.95 42.21 47.06 43.28L55.58 51.44L75.84 32.62C75.89 32.55 75.96 32.49 76.03 32.44C77.17 31.46 78.6 31.01 80 31.08L80.07 31.09C81.48 31.18 82.85 31.81 83.87 32.94C84.9 34.09 85.37 35.55 85.29 36.98L85.28 37.05C85.19 38.43 84.58 39.78 83.49 40.79L59.39 63.25C59.35 63.3 59.3 63.35 59.25 63.39C58.17 64.34 56.81 64.8 55.46 64.78C54.1 64.76 52.74 64.24 51.68 63.22L39.31 51.36Z" fill="white"/>
</g>
<defs>
<clipPath id="clip0_8_11">
<rect width="122.88" height="107.41" fill="white"/>
</clipPath>
</defs>
</svg>
