<?xml version="1.0" encoding="utf-8"?>
<!-- Generator: Adobe Illustrator 27.6.1, SVG Export Plug-In . SVG Version: 6.00 Build 0)  -->
<svg version="1.1" xmlns="http://www.w3.org/2000/svg" xmlns:xlink="http://www.w3.org/1999/xlink" x="0px" y="0px"
	 viewBox="0 0 32.9 19.2" style="enable-background:new 0 0 32.9 19.2;" xml:space="preserve">
<style type="text/css">
	.st0{display:none;fill:#1434CB;}
	.st1{fill:#FF5A00;}
	.st2{fill:#EB001B;}
	.st3{fill:#F79E1B;}
	.st4{display:none;}
	.st5{display:inline;fill:#FFFFFF;}
	.st6{display:inline;fill:#016FD0;}
	.st7{display:inline;fill:none;}
	.st8{display:inline;fill:#F79C34;}
	.st9{display:inline;fill:#333E47;}
	.st10{display:inline;}
	.st11{display:inline;fill-rule:evenodd;clip-rule:evenodd;fill:#009EE3;}
	.st12{display:inline;fill-rule:evenodd;clip-rule:evenodd;fill:#113984;}
	.st13{display:inline;fill-rule:evenodd;clip-rule:evenodd;fill:#172C70;}
	.st14{display:inline;fill:#0A0B09;}
	.st15{display:inline;fill:#D50172;}
	.st16{display:inline;fill:#527A42;}
</style>
<g id="Ebene_1">
</g>
<g id="Ebene_2">
	<path id="path3789" class="st0" d="M20.3,5.5c-1.8,0-3.4,0.9-3.4,2.7c0,2,2.9,2.1,2.9,3.1c0,0.4-0.5,0.8-1.3,0.8
		c-1.2,0-2-0.5-2-0.5L16,13.3c0,0,1,0.4,2.3,0.4c2,0,3.5-1,3.5-2.7c0-2.1-2.9-2.2-2.9-3.1c0-0.3,0.4-0.7,1.2-0.7
		c0.9,0,1.7,0.4,1.7,0.4l0.4-1.7C22.3,5.9,21.5,5.5,20.3,5.5L20.3,5.5z M3.8,5.6l0,0.3c0,0,0.8,0.1,1.4,0.4c0.9,0.3,0.9,0.5,1.1,1.1
		l1.6,6.2h2.2l3.3-8h-2.2L9.1,11L8.3,6.5c-0.1-0.5-0.5-0.8-1-0.8H3.8z M14.3,5.6l-1.7,8h2.1l1.7-8L14.3,5.6L14.3,5.6z M25.7,5.6
		c-0.5,0-0.8,0.3-1,0.7l-3,7.2h2.2l0.4-1.2H27l0.3,1.2h1.9l-1.7-8L25.7,5.6L25.7,5.6z M26,7.8l0.6,3H25L26,7.8L26,7.8z"/>
	<g>
		<path id="XMLID_1775_" d="M11.5,15.4v-0.8c0-0.3-0.2-0.5-0.5-0.5c-0.2,0-0.3,0.1-0.5,0.2c-0.1-0.1-0.2-0.2-0.4-0.2
			c-0.1,0-0.3,0-0.4,0.2v-0.2H9.4v1.3h0.3v-0.7c0-0.2,0.1-0.3,0.3-0.3c0.2,0,0.3,0.1,0.3,0.3v0.7h0.3v-0.7c0-0.2,0.1-0.3,0.3-0.3
			c0.2,0,0.3,0.1,0.3,0.3v0.7L11.5,15.4L11.5,15.4z M15.7,14.1h-0.5v-0.4h-0.3v0.4h-0.3v0.3h0.3v0.6c0,0.3,0.1,0.5,0.4,0.5
			c0.1,0,0.3,0,0.4-0.1l-0.1-0.2c-0.1,0.1-0.2,0.1-0.2,0.1c-0.1,0-0.2-0.1-0.2-0.2v-0.6h0.5L15.7,14.1L15.7,14.1z M18.1,14
			c-0.2,0-0.3,0.1-0.3,0.2v-0.2h-0.3v1.3h0.3v-0.7c0-0.2,0.1-0.3,0.3-0.3c0.1,0,0.1,0,0.2,0l0.1-0.3C18.2,14,18.1,14,18.1,14
			L18.1,14z M14.4,14.2c-0.1-0.1-0.3-0.1-0.5-0.1c-0.3,0-0.5,0.2-0.5,0.4c0,0.2,0.2,0.3,0.4,0.4l0.1,0c0.1,0,0.2,0.1,0.2,0.1
			c0,0.1-0.1,0.2-0.3,0.2c-0.2,0-0.3-0.1-0.4-0.1l-0.1,0.2c0.1,0.1,0.4,0.2,0.6,0.2c0.4,0,0.6-0.2,0.6-0.4c0-0.2-0.2-0.4-0.4-0.4
			l-0.1,0c-0.1,0-0.2,0-0.2-0.1c0-0.1,0.1-0.1,0.2-0.1c0.2,0,0.3,0.1,0.4,0.1L14.4,14.2L14.4,14.2z M22,14c-0.2,0-0.3,0.1-0.3,0.2
			v-0.2h-0.3v1.3h0.3v-0.7c0-0.2,0.1-0.3,0.3-0.3c0.1,0,0.1,0,0.2,0l0.1-0.3C22.1,14,22,14,22,14L22,14z M18.3,14.7
			c0,0.4,0.3,0.7,0.7,0.7c0.2,0,0.3,0,0.5-0.1L19.4,15c-0.1,0.1-0.2,0.1-0.3,0.1c-0.2,0-0.4-0.2-0.4-0.4c0-0.2,0.2-0.4,0.4-0.4
			c0.1,0,0.2,0,0.3,0.1l0.1-0.2c-0.1-0.1-0.3-0.1-0.5-0.1C18.6,14,18.3,14.3,18.3,14.7L18.3,14.7L18.3,14.7z M21,14.7v-0.6h-0.3v0.2
			c-0.1-0.1-0.2-0.2-0.4-0.2c-0.4,0-0.6,0.3-0.6,0.7s0.3,0.7,0.6,0.7c0.2,0,0.3-0.1,0.4-0.2v0.2H21V14.7L21,14.7z M19.9,14.7
			c0-0.2,0.1-0.4,0.4-0.4c0.2,0,0.4,0.2,0.4,0.4c0,0.2-0.2,0.4-0.4,0.4C20.1,15.1,19.9,15,19.9,14.7L19.9,14.7z M16.5,14
			c-0.4,0-0.6,0.3-0.6,0.7c0,0.4,0.3,0.7,0.7,0.7c0.2,0,0.4-0.1,0.5-0.2L16.9,15c-0.1,0.1-0.2,0.1-0.4,0.1c-0.2,0-0.4-0.1-0.4-0.3h1
			c0,0,0-0.1,0-0.1C17.1,14.3,16.9,14,16.5,14L16.5,14L16.5,14z M16.5,14.3c0.2,0,0.3,0.1,0.3,0.3h-0.7
			C16.2,14.4,16.3,14.3,16.5,14.3L16.5,14.3z M23.6,14.7v-1.2h-0.3v0.7c-0.1-0.1-0.2-0.2-0.4-0.2c-0.4,0-0.6,0.3-0.6,0.7
			s0.3,0.7,0.6,0.7c0.2,0,0.3-0.1,0.4-0.2v0.2h0.3V14.7L23.6,14.7z M22.5,14.7c0-0.2,0.1-0.4,0.4-0.4c0.2,0,0.4,0.2,0.4,0.4
			c0,0.2-0.2,0.4-0.4,0.4C22.7,15.1,22.5,15,22.5,14.7L22.5,14.7z M13.1,14.7v-0.6h-0.3v0.2c-0.1-0.1-0.2-0.2-0.4-0.2
			c-0.4,0-0.6,0.3-0.6,0.7s0.3,0.7,0.6,0.7c0.2,0,0.3-0.1,0.4-0.2v0.2h0.3V14.7L13.1,14.7z M12,14.7c0-0.2,0.1-0.4,0.4-0.4
			c0.2,0,0.4,0.2,0.4,0.4c0,0.2-0.2,0.4-0.4,0.4C12.2,15.1,12,15,12,14.7z"/>
		<g>
			<rect id="rect19" x="14.3" y="4.9" class="st1" width="4.2" height="7.6"/>
			<path id="XMLID_330_" class="st2" d="M14.6,8.7c0-1.5,0.7-2.9,1.8-3.8c-0.8-0.6-1.9-1-3-1c-2.7,0-4.9,2.2-4.9,4.9
				s2.2,4.9,4.9,4.9c1.1,0,2.2-0.4,3-1C15.3,11.6,14.6,10.2,14.6,8.7z"/>
			<path id="path22" class="st3" d="M24.3,8.7c0,2.7-2.2,4.9-4.9,4.9c-1.1,0-2.2-0.4-3-1c1.1-0.9,1.8-2.3,1.8-3.8s-0.7-2.9-1.8-3.8
				c0.8-0.6,1.9-1,3-1C22.1,3.8,24.3,6,24.3,8.7z"/>
		</g>
	</g>
	<g class="st4">
		<path id="path3082" class="st5" d="M9.3,13.8v-3.7h3.9l0.4,0.5l0.4-0.5h14v3.4c0,0-0.4,0.2-0.8,0.3h-7.8L19,13.3v0.6h-1.5v-1
			c0,0-0.2,0.1-0.7,0.1h-0.5v0.8H14l-0.4-0.6l-0.4,0.6H9.3z"/>
		<path id="path3080" class="st5" d="M4.8,7.4l0.9-2h1.5l0.5,1.1V5.4h1.9l0.3,0.8l0.3-0.8h8.4v0.4c0,0,0.4-0.4,1.2-0.4l2.7,0
			l0.5,1.1V5.4h1.6L24.9,6V5.4h1.6V9h-1.6l-0.4-0.6V9h-2.3L22,8.5h-0.6L21.1,9h-1.6c-0.6,0-1-0.4-1-0.4V9h-2.4l-0.5-0.6V9H7L6.7,8.5
			H6.1L5.9,9H4.8V7.4z"/>
		<path id="path3046" class="st6" d="M6,5.8L4.8,8.6h0.8L5.8,8h1.3l0.2,0.5h0.8L6.9,5.8L6,5.8L6,5.8z M6.4,6.5l0.4,1H6L6.4,6.5z"/>
		<path id="path3048" class="st6" d="M8.1,8.6V5.8l1.1,0l0.6,1.8l0.6-1.8h1.1v2.7h-0.7v-2l-0.7,2H9.5l-0.7-2v2H8.1z"/>
		<path id="path3050" class="st6" d="M12,8.6V5.8h2.2v0.6h-1.5v0.5h1.5v0.6h-1.5V8h1.5v0.6L12,8.6z"/>
		<path id="path3052" class="st6" d="M14.6,5.8v2.7h0.7v-1h0.3l0.8,1h0.8l-0.9-1c0.4,0,0.8-0.3,0.8-0.8c0-0.6-0.5-0.9-1-0.9
			L14.6,5.8L14.6,5.8z M15.3,6.5h0.8c0.2,0,0.3,0.1,0.3,0.3c0,0.2-0.2,0.3-0.3,0.3h-0.8L15.3,6.5L15.3,6.5z"/>
		<path id="path3054" class="st6" d="M18.1,8.6h-0.7V5.8h0.7V8.6z"/>
		<path id="path3056" class="st6" d="M19.8,8.6h-0.2c-0.7,0-1.2-0.6-1.2-1.4c0-0.8,0.4-1.4,1.4-1.4h0.8v0.6h-0.8
			c-0.4,0-0.6,0.3-0.6,0.7c0,0.5,0.3,0.8,0.7,0.8H20L19.8,8.6z"/>
		<path id="path3058" class="st6" d="M21.2,5.8l-1.2,2.7h0.8L21.1,8h1.3l0.2,0.5h0.8l-1.2-2.7L21.2,5.8L21.2,5.8z M21.7,6.5l0.4,1
			h-0.8L21.7,6.5L21.7,6.5z"/>
		<path id="path3060" class="st6" d="M23.4,8.6V5.8h0.9l1.1,1.7V5.8h0.7v2.7h-0.8l-1.1-1.8v1.8H23.4z"/>
		<path id="path3062" class="st6" d="M9.8,13.4v-2.7H12v0.6h-1.5v0.5H12v0.6h-1.5v0.5H12v0.6L9.8,13.4z"/>
		<path id="path3064" class="st6" d="M20.7,13.4v-2.7H23v0.6h-1.5v0.5h1.5v0.6h-1.5v0.5H23v0.6L20.7,13.4z"/>
		<path id="path3066" class="st6" d="M12.1,13.4l1.1-1.4l-1.1-1.4h0.9l0.7,0.9l0.7-0.9h0.8L14,12l1.1,1.4h-0.9l-0.6-0.8L13,13.4
			L12.1,13.4z"/>
		<path id="path3068" class="st6" d="M15.2,10.6v2.7h0.7v-0.9h0.7c0.6,0,1.1-0.3,1.1-1c0-0.5-0.4-0.9-1-0.9H15.2L15.2,10.6z
			 M15.9,11.2h0.8c0.2,0,0.3,0.1,0.3,0.3c0,0.2-0.1,0.3-0.3,0.3h-0.8V11.2L15.9,11.2z"/>
		<path id="path3072" class="st6" d="M18,10.6v2.7h0.7v-1h0.3l0.8,1h0.8l-0.9-1c0.4,0,0.8-0.3,0.8-0.8c0-0.6-0.5-0.9-1-0.9L18,10.6
			L18,10.6z M18.6,11.2h0.8c0.2,0,0.3,0.1,0.3,0.3c0,0.2-0.2,0.3-0.3,0.3h-0.8V11.2z"/>
		<path id="path3074" class="st6" d="M23.3,13.4v-0.6h1.4c0.2,0,0.3-0.1,0.3-0.2c0-0.1-0.1-0.2-0.3-0.2H24c-0.5,0-0.8-0.3-0.8-0.8
			c0-0.4,0.3-0.9,1.1-0.9h1.3l-0.3,0.6h-1.2c-0.2,0-0.3,0.1-0.3,0.2c0,0.1,0.1,0.2,0.3,0.2h0.6c0.6,0,0.9,0.3,0.9,0.8
			c0,0.5-0.3,0.9-0.9,0.9H23.3z"/>
		<path id="path3076" class="st6" d="M25.8,13.4v-0.6h1.4c0.2,0,0.3-0.1,0.3-0.2c0-0.1-0.1-0.2-0.3-0.2h-0.6c-0.5,0-0.8-0.3-0.8-0.8
			c0-0.4,0.3-0.9,1.1-0.9h1.3l-0.3,0.6h-1.2c-0.2,0-0.3,0.1-0.3,0.2c0,0.1,0.1,0.2,0.3,0.2h0.6c0.6,0,0.9,0.3,0.9,0.8
			c0,0.5-0.3,0.9-0.9,0.9H25.8z"/>
	</g>
	<g class="st4">
		<path class="st7" d="M23.1,10.7c-0.2,0-0.4,0.1-0.6,0.2v1.3c0.2,0.1,0.4,0.2,0.6,0.2c0.2,0,0.3,0,0.5-0.2c0.2-0.2,0.2-0.4,0.2-0.7
			C23.8,11.1,23.7,10.7,23.1,10.7z"/>
		<path class="st7" d="M16.4,7.8c-0.6,0-1.2,0.1-1.2,0.8c0,0.3,0.2,0.6,0.5,0.6c0.2,0,0.4-0.1,0.5-0.4c0.2-0.3,0.1-0.5,0.1-0.8V7.8z
			"/>
		<path class="st7" d="M25.2,11.8c-0.1,0.1-0.1,0.2-0.1,0.3c0,0.1,0,0.3,0.1,0.3c0.1,0.1,0.3,0.1,0.5,0c0.2,0,0.3-0.1,0.4-0.2v-0.5
			c-0.2,0-0.4-0.1-0.5-0.1C25.4,11.7,25.3,11.7,25.2,11.8z"/>
		<path class="st7" d="M23.5,6.3c-0.6,0-0.6,0.8-0.6,1.3s0,1.5,0.6,1.5c0.6,0,0.6-0.8,0.6-1.4c0-0.3,0-0.7-0.1-1.1
			C24,6.4,23.8,6.3,23.5,6.3z"/>
		<path class="st8" d="M19.3,11.1c-1.6,0.7-3.4,1-5.1,1c-2.4,0-4.8-0.7-6.6-1.8c-0.2-0.1-0.3,0.1-0.2,0.2c1.8,1.6,4.1,2.5,6.6,2.5
			c1.8,0,4-0.6,5.4-1.7C19.8,11.2,19.5,11,19.3,11.1z"/>
		<path class="st8" d="M18.4,10.5c-0.1,0.1-0.1,0.2,0,0.2c0.5-0.1,1.5-0.2,1.7,0.1c0.2,0.2-0.2,1.2-0.4,1.7
			c-0.1,0.1,0.1,0.2,0.2,0.1c0.8-0.7,1-2,0.8-2.2C20.6,10.1,19.2,9.9,18.4,10.5z"/>
		<path class="st9" d="M21.2,8.8c-0.4-0.3-1-0.3-1.5-0.3l1.3-1.9c0.1-0.2,0.2-0.3,0.2-0.4V5.7c0-0.1-0.1-0.1-0.1-0.1l-2.6,0
			c-0.1,0-0.1,0.1-0.1,0.1v0.6c0,0.1,0.1,0.1,0.1,0.1l1.3,0l-1.5,2.2c-0.1,0.1-0.1,0.3-0.1,0.4v0.6c0,0.1,0.1,0.2,0.2,0.1
			c0.9-0.5,1.9-0.4,2.7,0c0.1,0.1,0.2,0,0.2-0.1V9C21.4,8.9,21.3,8.9,21.2,8.8z"/>
		<path class="st9" d="M12.3,5.5c-0.5,0-0.9,0.2-1.1,0.7c-0.2-0.5-0.5-0.7-1-0.7c-0.5,0-0.8,0.2-1,0.7h0V5.7c0-0.1-0.1-0.1-0.1-0.1
			l-0.7,0c-0.1,0-0.2,0.1-0.2,0.1l0,4c0,0.1,0.1,0.1,0.1,0.1h0.8c0.1,0,0.2-0.1,0.2-0.1l0-2.1c0-0.5,0-1.1,0.5-1.1
			c0.6,0,0.5,0.7,0.5,1.1l0,2.1c0,0.1,0.1,0.1,0.1,0.1h0.8c0.1,0,0.2-0.1,0.2-0.1V7.6c0-0.2,0-0.6,0.1-0.8c0.1-0.2,0.3-0.3,0.5-0.3
			c0.2,0,0.4,0.1,0.5,0.3c0,0.2,0,0.6,0,0.8l0,2.1c0,0.1,0.1,0.1,0.1,0.1h0.8c0.1,0,0.2-0.1,0.2-0.1l0-2.5c0-0.4,0.1-0.9-0.2-1.3
			C13,5.6,12.6,5.5,12.3,5.5z"/>
		<path class="st9" d="M23.5,5.5c-1.1,0-1.8,1-1.8,2.2c0,1.2,0.6,2.2,1.8,2.2c1.1,0,1.8-1,1.8-2.2C25.3,6.5,24.7,5.5,23.5,5.5z
			 M23.5,9.1c-0.6,0-0.6-1-0.6-1.5s0-1.3,0.6-1.3c0.2,0,0.4,0.1,0.5,0.4c0.1,0.3,0.1,0.7,0.1,1.1C24.2,8.3,24.1,9.1,23.5,9.1z"/>
		<path class="st9" d="M28,5.5c-0.5,0-0.8,0.3-1.1,0.8h0V5.7c0-0.1-0.1-0.1-0.1-0.1l-0.7,0c-0.1,0-0.1,0.1-0.2,0.1l0,4
			c0,0.1,0.1,0.1,0.1,0.1h0.8c0.1,0,0.2-0.1,0.2-0.1V7.6c0-0.3,0-0.5,0.1-0.8c0.1-0.2,0.3-0.3,0.5-0.3c0.5,0,0.5,0.6,0.5,1.1v2.2
			c0,0.1,0.1,0.1,0.1,0.1H29c0.1,0,0.1-0.1,0.2-0.1V7.2c0-0.4,0-0.9-0.2-1.3C28.7,5.6,28.3,5.5,28,5.5z"/>
		<path class="st9" d="M17.5,8.4V7.2c0-0.5,0-1-0.3-1.3c-0.3-0.3-0.8-0.4-1.2-0.4h-0.1c-0.7,0-1.5,0.3-1.7,1.2
			c0,0.1,0.1,0.1,0.1,0.2l0.8,0.1c0.1,0,0.1-0.1,0.1-0.1c0.1-0.3,0.3-0.5,0.6-0.5c0.2,0,0.3,0.1,0.4,0.2c0.1,0.2,0.1,0.4,0.1,0.6
			v0.1c-0.5,0.1-1,0.1-1.5,0.3c-0.5,0.2-0.8,0.6-0.8,1.3c0,0.8,0.5,1.2,1.2,1.2c0.6,0,0.9-0.1,1.3-0.6c0.1,0.2,0.2,0.3,0.4,0.5
			c0.1,0,0.1,0,0.2,0l0,0c0.2-0.1,0.4-0.4,0.6-0.5c0.1-0.1,0.1-0.1,0-0.2C17.6,9,17.5,8.8,17.5,8.4z M16.2,8.8
			c-0.1,0.2-0.3,0.4-0.5,0.4c-0.3,0-0.5-0.2-0.5-0.6c0-0.7,0.6-0.8,1.2-0.8V8C16.4,8.3,16.4,8.5,16.2,8.8z"/>
		<path class="st9" d="M5,9.9c0.6,0,0.9-0.1,1.3-0.6c0.1,0.2,0.2,0.3,0.4,0.5c0.1,0,0.1,0,0.2,0l0,0c0.2-0.1,0.4-0.4,0.6-0.5
			c0.1-0.1,0.1-0.1,0-0.2C7.4,9,7.2,8.8,7.2,8.4V7.2c0-0.5,0-1-0.3-1.3C6.6,5.6,6.1,5.5,5.7,5.5H5.7C4.9,5.5,4.1,5.8,4,6.7
			c0,0.1,0.1,0.1,0.1,0.2l0.8,0.1c0.1,0,0.1-0.1,0.1-0.1C5,6.4,5.3,6.3,5.6,6.3c0.2,0,0.3,0.1,0.4,0.2c0.1,0.2,0.1,0.4,0.1,0.6v0.1
			c-0.5,0.1-1,0.1-1.5,0.3C4.2,7.7,3.8,8.1,3.8,8.7C3.8,9.5,4.3,9.9,5,9.9z M6.1,7.8V8c0,0.3,0,0.6-0.1,0.8C5.9,9,5.7,9.2,5.4,9.2
			C5.1,9.2,5,8.9,5,8.6C5,7.9,5.6,7.8,6.1,7.8z"/>
		<path class="st9" d="M29,10.3h-0.3c-0.1,0-0.1,0-0.1,0.1L28,12.3l-0.7-1.9c0,0,0-0.1-0.1-0.1h-0.3c-0.1,0-0.1,0.1-0.1,0.1l0.9,2.3
			c0,0.1-0.1,0.2-0.2,0.4c-0.1,0.1-0.1,0.2-0.3,0.2c-0.1,0-0.2,0-0.3,0c-0.1,0-0.1,0-0.1,0.1c0,0.1,0,0.1,0,0.2c0,0,0,0.1,0,0.1
			c0.1,0.1,0.4,0.1,0.5,0c0.4-0.1,0.5-0.6,0.6-0.9l0.9-2.4C29.1,10.4,29.1,10.3,29,10.3z"/>
		<path class="st9" d="M24.8,10.5v0.2c0,0,0,0.1,0.1,0.1c0.3-0.1,0.5-0.1,0.8-0.1c0.4,0,0.5,0.1,0.5,0.5v0.3
			c-0.2-0.1-0.4-0.1-0.6-0.1c-0.3,0-0.5,0.1-0.7,0.3c-0.1,0.1-0.2,0.3-0.2,0.5c0,0.2,0.1,0.5,0.3,0.6c0.3,0.2,0.6,0.1,0.8,0
			c0.1-0.1,0.3-0.1,0.4-0.2l0,0.2c0,0,0,0.1,0.1,0.1h0.2c0,0,0.1,0,0.1-0.1V11c0-0.6-0.5-0.7-0.9-0.7C25.3,10.3,25,10.3,24.8,10.5
			C24.8,10.4,24.8,10.5,24.8,10.5z M26.1,12.2c-0.1,0.1-0.2,0.2-0.4,0.2c-0.2,0-0.4,0.1-0.5,0c-0.1-0.1-0.1-0.2-0.1-0.3
			c0-0.1,0-0.2,0.1-0.3c0.1-0.1,0.3-0.1,0.4-0.1c0.1,0,0.4,0,0.5,0.1V12.2z"/>
		<path class="st9" d="M23.3,10.3c-0.3,0-0.6,0.1-0.8,0.3l0-0.2c0,0,0-0.1-0.1-0.1h-0.2c0,0-0.1,0-0.1,0.1c0,1.1,0,2.1,0,3.2
			c0,0,0,0.1,0.1,0.1h0.3c0,0,0.1,0,0.1-0.1v-1.1c0.2,0.2,0.4,0.3,0.7,0.3c0.6,0,1-0.6,1-1.2C24.3,10.9,24,10.3,23.3,10.3z
			 M23.6,12.2c-0.1,0.1-0.3,0.2-0.5,0.2c-0.2,0-0.4-0.1-0.6-0.2v-1.3c0.2-0.1,0.4-0.2,0.6-0.2c0.5,0,0.6,0.4,0.6,0.9
			C23.8,11.8,23.7,12.1,23.6,12.2z"/>
	</g>
	<g class="st4">
		<path class="st10" d="M8.3,6.8H7.1c0,1-0.5,1.9-1.3,2.5L5.3,9.7l1.9,2.6h1.6L7,9.9C7.9,9.1,8.3,8,8.3,6.8z"/>
		<rect x="3.9" y="6.8" class="st10" width="1.3" height="5.5"/>
		<rect x="9.2" y="6.8" class="st10" width="1.2" height="5.5"/>
		<path class="st10" d="M20.8,8.4c-0.5,0-0.9,0.1-1.2,0.5V8.5h-1.1v3.8h1.1v-2c0-0.6,0.4-0.9,0.9-0.9c0.5,0,0.8,0.3,0.8,0.9v2h1.1
			V9.9C22.4,9,21.7,8.4,20.8,8.4z"/>
		<path class="st10" d="M13.9,8.5v0.2c-0.3-0.2-0.7-0.3-1.1-0.3c-1.1,0-2,0.9-2,2s0.9,2,2,2c0.4,0,0.8-0.1,1.1-0.3v0.2h1.1V8.5H13.9
			z M12.9,11.4c-0.6,0-1-0.4-1-1c0-0.5,0.5-1,1-1c0.6,0,1,0.4,1,1C13.9,10.9,13.5,11.4,12.9,11.4z"/>
		<path class="st10" d="M16.8,9V8.5h-1.2v3.8h1.2v-1.8c0-0.6,0.6-0.9,1.1-0.9h0V8.5C17.5,8.5,17.1,8.7,16.8,9z"/>
		<path class="st10" d="M26,8.5v0.2c-0.3-0.2-0.7-0.3-1.1-0.3c-1.1,0-2,0.9-2,2s0.9,2,2,2c0.4,0,0.8-0.1,1.1-0.3v0.2h1.1V8.5H26z
			 M24.9,11.4c-0.6,0-1-0.4-1-1c0-0.5,0.5-1,1-1c0.6,0,1,0.4,1,1C26,10.9,25.5,11.4,24.9,11.4z"/>
		<circle class="st10" cx="28.3" cy="11.7" r="0.7"/>
	</g>
	<g class="st4">
		<path class="st10" d="M5,11.1l-1.2-3h0.7l0.9,2.4l0.9-2.4H7l-1.2,3H5z"/>
		<path class="st10" d="M6.8,10c0-0.2,0-0.3,0.1-0.5C6.9,9.4,7,9.3,7.1,9.2C7.2,9.1,7.3,9,7.5,9c0.1-0.1,0.3-0.1,0.5-0.1
			c0.2,0,0.3,0,0.5,0.1C8.5,9,8.7,9.1,8.8,9.2S9,9.4,9,9.6C9.1,9.7,9.1,9.9,9.1,10c0,0.2,0,0.3-0.1,0.5c-0.1,0.1-0.1,0.3-0.3,0.4
			C8.7,11,8.5,11,8.4,11.1c-0.1,0.1-0.3,0.1-0.5,0.1c-0.2,0-0.3,0-0.5-0.1C7.3,11,7.2,11,7.1,10.9c-0.1-0.1-0.2-0.2-0.3-0.4
			C6.8,10.4,6.8,10.2,6.8,10z M7.9,10.7c0.2,0,0.3-0.1,0.4-0.2c0.1-0.1,0.2-0.3,0.2-0.5c0-0.2-0.1-0.3-0.2-0.5
			C8.3,9.5,8.1,9.4,7.9,9.4c-0.2,0-0.3,0.1-0.4,0.2C7.4,9.7,7.3,9.9,7.3,10c0,0.2,0.1,0.3,0.2,0.5C7.6,10.6,7.8,10.7,7.9,10.7z"/>
		<path class="st10" d="M9.5,11.1V8.9h0.6v0.2C10.1,9.1,10.2,9,10.3,9c0.1,0,0.2-0.1,0.3-0.1c0.1,0,0.1,0,0.1,0c0,0,0.1,0,0.1,0v0.5
			c0,0-0.1,0-0.1,0c-0.1,0-0.1,0-0.2,0c-0.1,0-0.2,0-0.3,0.1c-0.1,0.1-0.2,0.1-0.2,0.2v1.4H9.5z"/>
		<path class="st10" d="M11.8,11.2c-0.2,0-0.4-0.1-0.6-0.2c-0.2-0.1-0.2-0.3-0.2-0.5c0-0.2,0.1-0.4,0.2-0.5c0.2-0.1,0.4-0.2,0.7-0.2
			c0.1,0,0.2,0,0.3,0c0.1,0,0.2,0,0.3,0.1V9.8c0-0.1,0-0.2-0.1-0.3S12.2,9.4,12,9.4c-0.1,0-0.2,0-0.3,0c-0.1,0-0.2,0.1-0.4,0.1
			l-0.2-0.4C11.3,9,11.5,9,11.6,8.9c0.2,0,0.3-0.1,0.5-0.1c0.3,0,0.5,0.1,0.7,0.2c0.2,0.1,0.2,0.3,0.2,0.6v1.4h-0.6V11
			c-0.1,0.1-0.2,0.1-0.3,0.1C12.1,11.2,12,11.2,11.8,11.2z M11.6,10.5c0,0.1,0,0.2,0.1,0.2c0.1,0,0.2,0.1,0.3,0.1c0.1,0,0.2,0,0.3,0
			c0.1,0,0.2-0.1,0.2-0.1v-0.3c-0.1,0-0.1,0-0.2-0.1c-0.1,0-0.2,0-0.2,0c-0.1,0-0.2,0-0.3,0.1C11.6,10.3,11.6,10.4,11.6,10.5z"/>
		<path class="st10" d="M14,8.9v1.3c0,0.1,0,0.3,0.1,0.3c0.1,0.1,0.2,0.1,0.3,0.1c0.1,0,0.2,0,0.3-0.1c0.1,0,0.1-0.1,0.2-0.2V8.9
			h0.6v2.2H15V11c-0.1,0.1-0.2,0.1-0.3,0.2c-0.1,0-0.2,0.1-0.3,0.1c-0.3,0-0.5-0.1-0.6-0.2c-0.2-0.2-0.2-0.4-0.2-0.6V8.9H14z"/>
		<path class="st10" d="M15.8,10.9l0.3-0.4c0.1,0.1,0.3,0.1,0.4,0.2s0.2,0.1,0.3,0.1c0.1,0,0.2,0,0.3-0.1c0.1,0,0.1-0.1,0.1-0.2
			c0-0.1,0-0.1-0.1-0.1c0,0-0.1-0.1-0.2-0.1l-0.4-0.1c-0.2,0-0.4-0.1-0.5-0.2c-0.1-0.1-0.2-0.3-0.2-0.4c0-0.2,0.1-0.4,0.3-0.5
			c0.2-0.1,0.4-0.2,0.7-0.2c0.2,0,0.3,0,0.5,0.1c0.2,0,0.3,0.1,0.4,0.2l-0.3,0.4c-0.1-0.1-0.2-0.1-0.3-0.2c-0.1,0-0.2-0.1-0.3-0.1
			c-0.1,0-0.2,0-0.3,0.1c-0.1,0-0.1,0.1-0.1,0.2c0,0.1,0,0.1,0.1,0.1c0,0,0.1,0.1,0.2,0.1l0.4,0.1c0.2,0,0.4,0.1,0.5,0.2
			c0.1,0.1,0.2,0.3,0.2,0.4c0,0.1,0,0.2-0.1,0.3c0,0.1-0.1,0.2-0.2,0.2c-0.1,0.1-0.2,0.1-0.3,0.2c-0.1,0-0.2,0.1-0.4,0.1
			c-0.2,0-0.4,0-0.6-0.1C16.1,11.1,15.9,11,15.8,10.9z"/>
		<path class="st10" d="M18.1,11.1v-3L18.7,8v1.8l1-0.9h0.7l-1,1l1.1,1.2h-0.7l-0.9-1v1H18.1z"/>
		<path class="st10" d="M21.1,11.2c-0.2,0-0.4-0.1-0.6-0.2c-0.2-0.1-0.2-0.3-0.2-0.5c0-0.2,0.1-0.4,0.2-0.5c0.2-0.1,0.4-0.2,0.7-0.2
			c0.1,0,0.2,0,0.3,0c0.1,0,0.2,0,0.3,0.1V9.8c0-0.1,0-0.2-0.1-0.3c-0.1-0.1-0.2-0.1-0.3-0.1c-0.1,0-0.2,0-0.3,0
			c-0.1,0-0.2,0.1-0.4,0.1l-0.2-0.4C20.6,9,20.8,9,20.9,8.9c0.2,0,0.3-0.1,0.5-0.1c0.3,0,0.5,0.1,0.7,0.2c0.2,0.1,0.2,0.3,0.2,0.6
			v1.4h-0.6V11c-0.1,0.1-0.2,0.1-0.3,0.1C21.4,11.2,21.3,11.2,21.1,11.2z M20.9,10.5c0,0.1,0,0.2,0.1,0.2c0.1,0,0.2,0.1,0.3,0.1
			c0.1,0,0.2,0,0.3,0c0.1,0,0.2-0.1,0.2-0.1v-0.3c-0.1,0-0.1,0-0.2-0.1c-0.1,0-0.2,0-0.2,0c-0.1,0-0.2,0-0.3,0.1
			C20.9,10.3,20.9,10.4,20.9,10.5z"/>
		<path class="st10" d="M22.6,10.9l0.3-0.4c0.1,0.1,0.3,0.1,0.4,0.2s0.2,0.1,0.3,0.1c0.1,0,0.2,0,0.3-0.1c0.1,0,0.1-0.1,0.1-0.2
			c0-0.1,0-0.1-0.1-0.1c0,0-0.1-0.1-0.2-0.1l-0.4-0.1c-0.2,0-0.4-0.1-0.5-0.2c-0.1-0.1-0.2-0.3-0.2-0.4c0-0.2,0.1-0.4,0.3-0.5
			c0.2-0.1,0.4-0.2,0.7-0.2c0.2,0,0.3,0,0.5,0.1c0.2,0,0.3,0.1,0.4,0.2l-0.3,0.4c-0.1-0.1-0.2-0.1-0.3-0.2c-0.1,0-0.2-0.1-0.3-0.1
			c-0.1,0-0.2,0-0.3,0.1c-0.1,0-0.1,0.1-0.1,0.2c0,0.1,0,0.1,0.1,0.1c0,0,0.1,0.1,0.2,0.1l0.4,0.1c0.2,0,0.4,0.1,0.5,0.2
			c0.1,0.1,0.2,0.3,0.2,0.4c0,0.1,0,0.2-0.1,0.3c0,0.1-0.1,0.2-0.2,0.2c-0.1,0.1-0.2,0.1-0.3,0.2c-0.1,0-0.2,0.1-0.4,0.1
			c-0.2,0-0.4,0-0.6-0.1C22.9,11.1,22.7,11,22.6,10.9z"/>
		<path class="st10" d="M24.7,10.9l0.3-0.4c0.1,0.1,0.3,0.1,0.4,0.2c0.1,0,0.2,0.1,0.3,0.1c0.1,0,0.2,0,0.3-0.1
			c0.1,0,0.1-0.1,0.1-0.2c0-0.1,0-0.1-0.1-0.1c0,0-0.1-0.1-0.2-0.1l-0.4-0.1c-0.2,0-0.4-0.1-0.5-0.2c-0.1-0.1-0.2-0.3-0.2-0.4
			c0-0.2,0.1-0.4,0.3-0.5c0.2-0.1,0.4-0.2,0.7-0.2c0.2,0,0.3,0,0.5,0.1c0.2,0,0.3,0.1,0.4,0.2l-0.3,0.4c-0.1-0.1-0.2-0.1-0.3-0.2
			c-0.1,0-0.2-0.1-0.3-0.1c-0.1,0-0.2,0-0.3,0.1c-0.1,0-0.1,0.1-0.1,0.2c0,0.1,0,0.1,0.1,0.1c0,0,0.1,0.1,0.2,0.1L26,9.8
			c0.2,0,0.4,0.1,0.5,0.2c0.1,0.1,0.2,0.3,0.2,0.4c0,0.1,0,0.2-0.1,0.3c0,0.1-0.1,0.2-0.2,0.2c-0.1,0.1-0.2,0.1-0.3,0.2
			c-0.1,0-0.2,0.1-0.4,0.1c-0.2,0-0.4,0-0.6-0.1C25,11.1,24.8,11,24.7,10.9z"/>
		<path class="st10" d="M29,10.9c-0.1,0.1-0.3,0.2-0.4,0.2c-0.1,0.1-0.3,0.1-0.5,0.1c-0.2,0-0.3,0-0.5-0.1c-0.1-0.1-0.3-0.1-0.4-0.2
			c-0.1-0.1-0.2-0.2-0.3-0.4c-0.1-0.1-0.1-0.3-0.1-0.5c0-0.2,0-0.3,0.1-0.4c0.1-0.1,0.1-0.3,0.2-0.4C27.3,9.1,27.4,9,27.6,9
			c0.1-0.1,0.3-0.1,0.4-0.1c0.2,0,0.3,0,0.4,0.1s0.3,0.1,0.3,0.2C28.9,9.3,29,9.5,29,9.6c0.1,0.1,0.1,0.3,0.1,0.5v0.2h-1.7
			c0,0.1,0.1,0.3,0.2,0.3c0.1,0.1,0.2,0.1,0.4,0.1c0.1,0,0.2,0,0.3,0c0.1,0,0.2-0.1,0.2-0.1L29,10.9z M28,9.4c-0.1,0-0.2,0-0.3,0.1
			c-0.1,0.1-0.2,0.2-0.2,0.3h1.1c0-0.1-0.1-0.2-0.2-0.3C28.3,9.4,28.1,9.4,28,9.4z"/>
	</g>
	<g class="st4">
		<path class="st11" d="M6.1,8h1.7C8.7,8,9.1,8.5,9,9.2c-0.1,1.1-0.8,1.8-1.7,1.8H6.9c-0.1,0-0.2,0.1-0.2,0.3l-0.2,1.3
			c0,0.1-0.1,0.1-0.1,0.1H5.2c-0.1,0-0.1-0.1-0.1-0.2l0.7-4.2C5.8,8.1,5.9,8,6.1,8z"/>
		<path class="st12" d="M13.5,7.9c0.6,0,1.1,0.3,1,1.1c-0.1,0.9-0.6,1.5-1.4,1.5h-0.7c-0.1,0-0.1,0.1-0.2,0.2l-0.1,0.8
			c0,0.1-0.1,0.2-0.2,0.2h-0.6c-0.1,0-0.1-0.1-0.1-0.2l0.5-3.4c0-0.2,0.1-0.2,0.2-0.2H13.5L13.5,7.9z M12.5,9.7H13
			c0.3,0,0.5-0.2,0.6-0.6c0-0.3-0.2-0.4-0.4-0.4l-0.5,0L12.5,9.7L12.5,9.7z M16.3,11.5c0.1-0.1,0.1-0.1,0.1,0l0,0.2
			c0,0.1,0,0.1,0.1,0.1h0.6c0.1,0,0.1,0,0.2-0.2l0.4-2.2c0-0.1,0-0.2-0.1-0.2h-0.6c-0.1,0-0.1,0-0.1,0.1l0,0.1c0,0.1,0,0.1-0.1,0
			c-0.1-0.3-0.4-0.4-0.8-0.4c-0.9,0-1.5,0.7-1.5,1.5c0,0.7,0.4,1.2,1.1,1.2C15.9,11.8,16.1,11.7,16.3,11.5L16.3,11.5L16.3,11.5z
			 M15.9,11.2c-0.4,0-0.6-0.3-0.6-0.7c0.1-0.4,0.4-0.7,0.8-0.7s0.6,0.3,0.6,0.7S16.2,11.2,15.9,11.2L15.9,11.2z M18.7,9.2h-0.6
			C18,9.2,18,9.3,18,9.4l0.7,2.1l-0.7,1c-0.1,0.1,0,0.2,0.1,0.2h0.6c0.1,0,0.2,0,0.2-0.1l2.2-3.2c0.1-0.1,0-0.2-0.1-0.2h-0.6
			c-0.1,0-0.1,0-0.2,0.1l-0.9,1.3l-0.4-1.3C18.9,9.2,18.8,9.2,18.7,9.2L18.7,9.2z"/>
		<path class="st11" d="M23.4,7.9c0.6,0,1.1,0.3,1,1.1c-0.1,0.9-0.6,1.5-1.4,1.5h-0.7c-0.1,0-0.1,0.1-0.2,0.2l-0.1,0.8
			c0,0.1-0.1,0.2-0.2,0.2h-0.6c-0.1,0-0.1-0.1-0.1-0.2l0.5-3.4c0-0.2,0.1-0.2,0.2-0.2L23.4,7.9L23.4,7.9z M22.4,9.7h0.5
			c0.3,0,0.5-0.2,0.6-0.6c0-0.3-0.2-0.4-0.4-0.4l-0.5,0L22.4,9.7L22.4,9.7z M26.2,11.5c0.1-0.1,0.1-0.1,0.1,0l0,0.2
			c0,0.1,0,0.1,0.1,0.1H27c0.1,0,0.1,0,0.2-0.2l0.4-2.2c0-0.1,0-0.2-0.1-0.2h-0.6c-0.1,0-0.1,0-0.1,0.1l0,0.1c0,0.1,0,0.1-0.1,0
			c-0.1-0.3-0.4-0.4-0.8-0.4c-0.9,0-1.5,0.7-1.5,1.5c0,0.7,0.4,1.2,1.1,1.2C25.8,11.8,26,11.7,26.2,11.5L26.2,11.5L26.2,11.5z
			 M25.8,11.2c-0.4,0-0.6-0.3-0.6-0.7s0.4-0.7,0.8-0.7s0.6,0.3,0.6,0.7S26.1,11.2,25.8,11.2L25.8,11.2z M28.4,11.8h-0.7
			c0,0-0.1,0-0.1-0.1c0,0,0,0,0,0L28.2,8c0-0.1,0.1-0.1,0.1-0.1H29c0,0,0.1,0,0.1,0.1c0,0,0,0,0,0l-0.6,3.7
			C28.5,11.7,28.4,11.8,28.4,11.8L28.4,11.8z"/>
		<path class="st12" d="M5,6.6h1.7c0.5,0,1.1,0,1.4,0.4c0.3,0.2,0.4,0.6,0.4,1C8.4,9.2,7.6,9.9,6.6,9.9H5.7c-0.1,0-0.2,0.1-0.3,0.4
			l-0.2,1.5c0,0.1-0.1,0.2-0.1,0.2H4c-0.1,0-0.2-0.1-0.1-0.3l0.8-4.8C4.7,6.7,4.8,6.6,5,6.6z"/>
		<path class="st13" d="M5.5,10.1l0.3-1.9C5.8,8.1,5.9,8,6.1,8h1.7c0.3,0,0.5,0,0.7,0.1C8.3,9.3,7.6,9.9,6.6,9.9H5.7
			C5.6,9.9,5.5,10,5.5,10.1z"/>
	</g>
	<g class="st4">
		<polygon id="Path-2" class="st5" points="18.6,5.8 17,5.7 11.8,5.6 11.8,13.7 17.4,13.7 19.3,13.2 20.6,12.1 21.2,10.4 21.2,8.4 
			20.2,6.7 		"/>
		<path id="Fill-4" class="st14" d="M11.9,5.7v7.7h4.7c2.8,0,4.4-1.3,4.4-3.9c0-2.6-1.7-3.9-4.4-3.9L11.9,5.7L11.9,5.7z M16.6,5.3
			c4.2,0,4.8,2.7,4.8,4.3c0,2.8-1.7,4.3-4.8,4.3c0,0-5,0-5.1,0c0-0.1,0-8.4,0-8.5C11.6,5.3,16.6,5.3,16.6,5.3z"/>
		<path id="Fill-7" class="st15" d="M14.8,8.4c0,0.2,0,0.6,0,0.9c0.1,0,0.3,0,0.3,0c0.2,0,0.4-0.1,0.4-0.4c0-0.4-0.2-0.4-0.4-0.4
			C15.1,8.4,15,8.4,14.8,8.4z M19.3,8h0.4c0,0,0,1,0,1.3c0.1,0,0.4,0,0.6,0c-0.2-2.4-2-2.9-3.7-2.9h-1.8V8h0.3
			c0.5,0,0.8,0.3,0.8,0.9c0,0.5-0.3,0.9-0.8,0.9h-0.3v3.2h1.8c2.8,0,3.7-1.3,3.8-3.2h-1.1V8z M18.1,8.9h0.3l-0.1-0.5h0L18.1,8.9
			L18.1,8.9z M17.4,9.7L17.9,8h0.6l0.5,1.7h-0.5l-0.1-0.3H18l-0.1,0.3H17.4L17.4,9.7z M17.2,9.3v0.4h-1.1V8h1v0.4c0,0-0.4,0-0.6,0
			c0,0.1,0,0.1,0,0.2h0.6V9h-0.6c0,0.1,0,0.2,0,0.2C16.8,9.3,17.2,9.3,17.2,9.3L17.2,9.3z"/>
		<path id="Fill-6" class="st10" d="M14.3,8.8c0,0.5-0.4,0.9-0.9,0.9c-0.5,0-0.9-0.4-0.9-0.9c0-0.5,0.4-0.9,0.9-0.9
			C13.8,7.9,14.3,8.3,14.3,8.8 M12.6,12.9h1.5v-2.7h-1.5V12.9z"/>
	</g>
	<g class="st4">
		<rect x="7.8" y="8.2" class="st16" width="0.6" height="2.8"/>
		<polygon class="st16" points="12.2,8.2 11.3,10.3 10.5,8.2 9.8,8.2 11,11 11.7,11 12.9,8.2 12.2,8.2 		"/>
		<polygon class="st16" points="4.5,8.8 3.8,8.8 3.8,11 4.5,11 4.5,8.8 4.5,8.8 6.7,8.8 6.7,8.2 4.5,8.2 		"/>
		<polygon class="st16" points="28.3,8.2 27.6,9.2 26.9,8.2 26.1,8.2 27.2,9.8 27.2,11 27.9,11 27.9,9.8 29.1,8.2 		"/>
		<polygon class="st16" points="14.2,11 16.8,11 16.8,10.5 14.9,10.5 14.9,9.9 16.5,9.9 16.5,9.3 14.9,9.3 14.9,8.8 16.8,8.8 
			16.8,8.2 14.2,8.2 		"/>
		<polygon class="st16" points="22.5,8.8 23.5,8.8 23.5,11 24.2,11 24.2,8.8 25.2,8.8 25.2,8.2 22.5,8.2 		"/>
		<path class="st16" d="M21.3,9.1c0-0.6-0.4-0.9-1-0.9h-1.7V11h0.6v-1h0.7l0.7,1l0.8,0l-0.7-1.1C21.1,9.8,21.3,9.5,21.3,9.1z
			 M20.2,9.4h-1V8.8h1c0.3,0,0.4,0.1,0.4,0.3C20.6,9.3,20.5,9.4,20.2,9.4z"/>
	</g>
	<g class="st4">
		<path class="st10" d="M3.8,10.7v-3h1.5c0.1,0,0.3,0,0.4,0.1c0.1,0,0.2,0.1,0.3,0.2C6.2,8,6.2,8.1,6.3,8.2c0.1,0.1,0.1,0.2,0.1,0.4
			c0,0.1,0,0.3-0.1,0.4C6.2,9.1,6.2,9.2,6.1,9.3S5.9,9.4,5.8,9.4c-0.1,0-0.3,0.1-0.4,0.1H4.5v1.1H3.8z M5.3,8.2H4.5V9h0.8
			c0.1,0,0.2,0,0.3-0.1c0.1-0.1,0.1-0.2,0.1-0.3c0-0.1,0-0.2-0.1-0.3C5.5,8.2,5.4,8.2,5.3,8.2z"/>
		<path class="st10" d="M6.7,10.7V8.4h0.6v0.2c0.1-0.1,0.2-0.2,0.3-0.2c0.1-0.1,0.2-0.1,0.3-0.1c0.1,0,0.1,0,0.1,0c0,0,0.1,0,0.1,0
			v0.5c0,0-0.1,0-0.1,0c-0.1,0-0.1,0-0.2,0c-0.1,0-0.2,0-0.3,0.1C7.5,9,7.4,9.1,7.3,9.2v1.5H6.7z"/>
		<path class="st10" d="M10.4,10.4c-0.1,0.1-0.3,0.2-0.4,0.2c-0.1,0.1-0.3,0.1-0.5,0.1c-0.2,0-0.3,0-0.5-0.1
			c-0.1-0.1-0.3-0.1-0.4-0.2c-0.1-0.1-0.2-0.2-0.3-0.4S8.3,9.7,8.3,9.5c0-0.2,0-0.3,0.1-0.5c0.1-0.1,0.1-0.3,0.2-0.4
			C8.7,8.6,8.9,8.5,9,8.5c0.1-0.1,0.3-0.1,0.5-0.1c0.2,0,0.3,0,0.4,0.1c0.1,0.1,0.3,0.1,0.4,0.3c0.1,0.1,0.2,0.2,0.2,0.4
			c0.1,0.1,0.1,0.3,0.1,0.5v0.2H8.9c0,0.1,0.1,0.3,0.2,0.3c0.1,0.1,0.3,0.1,0.4,0.1c0.1,0,0.2,0,0.3,0c0.1,0,0.2-0.1,0.2-0.1
			L10.4,10.4z M9.5,8.9c-0.1,0-0.3,0-0.4,0.1C9,9.1,8.9,9.2,8.9,9.3H10C10,9.2,9.9,9.1,9.8,9S9.6,8.9,9.5,8.9z"/>
		<path class="st10" d="M11,11.6V8.4h0.6v0.2c0.1-0.1,0.2-0.1,0.3-0.2c0.1,0,0.2-0.1,0.3-0.1c0.2,0,0.3,0,0.5,0.1
			c0.1,0.1,0.3,0.1,0.4,0.2c0.1,0.1,0.2,0.2,0.2,0.4c0.1,0.1,0.1,0.3,0.1,0.5c0,0.2,0,0.3-0.1,0.5s-0.1,0.3-0.2,0.4
			c-0.1,0.1-0.2,0.2-0.4,0.2c-0.1,0.1-0.3,0.1-0.5,0.1c-0.1,0-0.2,0-0.3,0c-0.1,0-0.2-0.1-0.3-0.1v1.1H11z M12.1,8.9
			c-0.1,0-0.2,0-0.3,0.1c-0.1,0-0.2,0.1-0.2,0.2V10c0.1,0.1,0.1,0.1,0.2,0.2c0.1,0,0.2,0.1,0.3,0.1c0.2,0,0.3-0.1,0.5-0.2
			c0.1-0.1,0.2-0.3,0.2-0.5c0-0.2-0.1-0.3-0.2-0.5C12.4,8.9,12.3,8.9,12.1,8.9z"/>
		<path class="st10" d="M14.4,10.7c-0.2,0-0.4-0.1-0.6-0.2c-0.2-0.1-0.2-0.3-0.2-0.5c0-0.2,0.1-0.4,0.2-0.5c0.2-0.1,0.4-0.2,0.7-0.2
			c0.1,0,0.2,0,0.3,0c0.1,0,0.2,0,0.3,0.1V9.2c0-0.1,0-0.2-0.1-0.3s-0.2-0.1-0.4-0.1c-0.1,0-0.2,0-0.3,0c-0.1,0-0.2,0.1-0.4,0.1
			l-0.2-0.4c0.2-0.1,0.3-0.1,0.5-0.2c0.2,0,0.3-0.1,0.5-0.1c0.3,0,0.5,0.1,0.7,0.2c0.2,0.1,0.3,0.4,0.3,0.6v1.5h-0.6v-0.2
			c-0.1,0.1-0.2,0.1-0.3,0.1C14.7,10.7,14.6,10.7,14.4,10.7z M14.2,10c0,0.1,0,0.2,0.1,0.2c0.1,0.1,0.2,0.1,0.3,0.1
			c0.1,0,0.2,0,0.3,0s0.2-0.1,0.2-0.1V9.8c-0.1,0-0.1-0.1-0.2-0.1c-0.1,0-0.2,0-0.2,0c-0.1,0-0.2,0-0.3,0.1
			C14.2,9.8,14.2,9.9,14.2,10z"/>
		<path class="st10" d="M16.7,10.8L16.7,10.8l-0.8-2.4h0.7l0.6,1.5l0.6-1.5h0.6l-1,2.4c-0.1,0.3-0.3,0.5-0.4,0.6
			c-0.2,0.1-0.4,0.2-0.6,0.2c-0.1,0-0.1,0-0.2,0c0,0-0.1,0-0.1,0v-0.5c0,0,0.1,0,0.1,0c0,0,0.1,0,0.1,0c0.1,0,0.2,0,0.3-0.1
			C16.6,10.9,16.7,10.9,16.7,10.8z"/>
		<path class="st10" d="M18.6,10.7V8.4h0.6v0.2c0.1-0.1,0.2-0.1,0.3-0.2c0.1,0,0.2-0.1,0.3-0.1c0.1,0,0.3,0,0.4,0.1
			c0.1,0.1,0.2,0.1,0.3,0.2c0.1-0.1,0.2-0.2,0.3-0.3c0.1-0.1,0.3-0.1,0.4-0.1c0.3,0,0.5,0.1,0.6,0.3C22,8.8,22.1,9,22.1,9.3v1.4
			h-0.6V9.3c0-0.1,0-0.3-0.1-0.3c-0.1-0.1-0.2-0.1-0.3-0.1c-0.1,0-0.2,0-0.2,0.1c-0.1,0-0.1,0.1-0.2,0.2c0,0,0,0.1,0,0.1
			c0,0,0,0.1,0,0.1v1.4H20V9.3c0-0.1,0-0.3-0.1-0.3c-0.1-0.1-0.2-0.1-0.3-0.1c-0.1,0-0.2,0-0.2,0.1c-0.1,0-0.1,0.1-0.2,0.2v1.6H18.6
			z"/>
		<path class="st10" d="M24.6,10.4c-0.1,0.1-0.3,0.2-0.4,0.2c-0.1,0.1-0.3,0.1-0.5,0.1c-0.2,0-0.3,0-0.5-0.1
			c-0.1-0.1-0.3-0.1-0.4-0.2c-0.1-0.1-0.2-0.2-0.3-0.4c-0.1-0.1-0.1-0.3-0.1-0.5c0-0.2,0-0.3,0.1-0.5c0.1-0.1,0.1-0.3,0.2-0.4
			s0.2-0.2,0.4-0.2s0.3-0.1,0.5-0.1c0.2,0,0.3,0,0.4,0.1c0.1,0.1,0.3,0.1,0.4,0.3c0.1,0.1,0.2,0.2,0.2,0.4c0.1,0.1,0.1,0.3,0.1,0.5
			v0.2H23c0,0.1,0.1,0.3,0.2,0.3c0.1,0.1,0.3,0.1,0.4,0.1c0.1,0,0.2,0,0.3,0c0.1,0,0.2-0.1,0.2-0.1L24.6,10.4z M23.6,8.9
			c-0.1,0-0.3,0-0.4,0.1c-0.1,0.1-0.2,0.2-0.2,0.3h1.1c0-0.1-0.1-0.2-0.2-0.3C23.8,8.9,23.7,8.9,23.6,8.9z"/>
		<path class="st10" d="M25.1,10.7V8.4h0.6v0.2c0.1-0.1,0.2-0.1,0.3-0.2c0.1,0,0.2-0.1,0.3-0.1c0.3,0,0.5,0.1,0.6,0.3
			c0.2,0.2,0.3,0.4,0.3,0.6v1.4h-0.6V9.3c0-0.1,0-0.3-0.1-0.3c-0.1-0.1-0.2-0.1-0.3-0.1c-0.1,0-0.2,0-0.3,0.1
			c-0.1,0-0.1,0.1-0.2,0.2v1.6H25.1z"/>
		<path class="st10" d="M27.9,10V8.9h-0.5V8.4h0.5V7.8l0.6-0.1v0.7h0.6v0.5h-0.6v1c0,0.1,0,0.2,0.1,0.2c0,0,0.1,0.1,0.2,0.1
			c0.1,0,0.1,0,0.2,0c0,0,0.1,0,0.2,0v0.5c-0.1,0-0.1,0-0.2,0.1c-0.1,0-0.2,0-0.2,0c-0.3,0-0.4-0.1-0.6-0.2
			C27.9,10.4,27.9,10.2,27.9,10z"/>
	</g>
	<g class="st4">
		<path class="st10" d="M6.5,8.4V5.1h1.7c0.2,0,0.3,0,0.5,0.1c0.1,0.1,0.3,0.1,0.4,0.2C9,5.5,9.1,5.6,9.2,5.7C9.2,5.9,9.3,6,9.3,6.1
			c0,0.1,0,0.3-0.1,0.4C9.1,6.7,9,6.8,8.9,6.9C8.8,7,8.7,7,8.6,7.1C8.4,7.1,8.3,7.2,8.1,7.2h-1v1.2H6.5z M8.1,5.7H7.2v0.9h0.9
			c0.1,0,0.3,0,0.4-0.1c0.1-0.1,0.1-0.2,0.1-0.3c0-0.1,0-0.2-0.1-0.3C8.3,5.7,8.2,5.7,8.1,5.7z"/>
		<path class="st10" d="M10.4,8.5c-0.3,0-0.5-0.1-0.7-0.2C9.5,8.1,9.4,7.9,9.4,7.7c0-0.2,0.1-0.4,0.3-0.5C9.9,7,10.1,7,10.5,7
			c0.1,0,0.2,0,0.3,0C10.9,7,11,7,11.1,7V6.9c0-0.1,0-0.2-0.1-0.3c-0.1-0.1-0.2-0.1-0.4-0.1c-0.1,0-0.2,0-0.3,0
			c-0.1,0-0.3,0.1-0.4,0.2L9.5,6.2C9.7,6.1,9.9,6,10.1,6c0.2,0,0.4-0.1,0.5-0.1c0.3,0,0.6,0.1,0.8,0.2s0.3,0.4,0.3,0.7v1.6h-0.6V8.2
			c-0.1,0.1-0.2,0.1-0.3,0.2C10.6,8.4,10.5,8.5,10.4,8.5z M10.1,7.7c0,0.1,0,0.2,0.1,0.2C10.3,8,10.4,8,10.5,8c0.1,0,0.2,0,0.3,0
			c0.1,0,0.2-0.1,0.3-0.1V7.5c-0.1,0-0.2-0.1-0.3-0.1c-0.1,0-0.2,0-0.3,0c-0.1,0-0.3,0-0.4,0.1C10.1,7.5,10.1,7.6,10.1,7.7z"/>
		<path class="st10" d="M13.4,8.4c-0.2,0-0.3,0-0.5-0.1c-0.2-0.1-0.3-0.2-0.4-0.3c-0.1-0.1-0.2-0.2-0.3-0.4
			c-0.1-0.2-0.1-0.3-0.1-0.5c0-0.2,0-0.3,0.1-0.5c0.1-0.2,0.2-0.3,0.3-0.4c0.1-0.1,0.3-0.2,0.4-0.3s0.3-0.1,0.5-0.1
			c0.1,0,0.2,0,0.4,0.1c0.1,0,0.2,0.1,0.3,0.1V6h0.6v2.5c0,0.3-0.1,0.6-0.3,0.7c-0.2,0.2-0.5,0.3-0.9,0.3c-0.2,0-0.4,0-0.6-0.1
			c-0.2,0-0.3-0.1-0.5-0.2l0.2-0.5c0.1,0.1,0.3,0.1,0.4,0.1c0.1,0,0.3,0,0.4,0c0.2,0,0.3,0,0.4-0.1C14,8.7,14,8.6,14,8.4V8.2
			c-0.1,0.1-0.2,0.1-0.3,0.2C13.6,8.4,13.5,8.4,13.4,8.4z M12.7,7.2c0,0.2,0.1,0.4,0.2,0.5c0.1,0.1,0.3,0.2,0.5,0.2
			c0.1,0,0.2,0,0.3-0.1c0.1,0,0.2-0.1,0.3-0.2v-1c-0.1-0.1-0.2-0.1-0.3-0.2c-0.1,0-0.2-0.1-0.3-0.1c-0.2,0-0.4,0.1-0.5,0.2
			C12.8,6.8,12.7,7,12.7,7.2z"/>
		<path class="st10" d="M15.1,7.2c0-0.2,0-0.3,0.1-0.5c0.1-0.2,0.2-0.3,0.3-0.4c0.1-0.1,0.3-0.2,0.4-0.3c0.2-0.1,0.3-0.1,0.5-0.1
			c0.2,0,0.4,0,0.5,0.1c0.2,0.1,0.3,0.2,0.4,0.3c0.1,0.1,0.2,0.2,0.3,0.4c0.1,0.2,0.1,0.3,0.1,0.5c0,0.2,0,0.3-0.1,0.5
			c-0.1,0.2-0.2,0.3-0.3,0.4c-0.1,0.1-0.3,0.2-0.4,0.3c-0.2,0.1-0.3,0.1-0.5,0.1c-0.2,0-0.4,0-0.5-0.1c-0.2-0.1-0.3-0.2-0.4-0.3
			c-0.1-0.1-0.2-0.2-0.3-0.4C15.1,7.5,15.1,7.4,15.1,7.2z M16.4,7.9c0.2,0,0.4-0.1,0.5-0.2c0.1-0.1,0.2-0.3,0.2-0.5
			c0-0.2-0.1-0.4-0.2-0.5c-0.1-0.1-0.3-0.2-0.5-0.2c-0.2,0-0.4,0.1-0.5,0.2c-0.1,0.1-0.2,0.3-0.2,0.5c0,0.2,0.1,0.4,0.2,0.5
			C16.1,7.8,16.2,7.9,16.4,7.9z"/>
		<path class="st10" d="M19.1,9.4V6h0.6v0.2C19.9,6.1,20,6,20.1,6c0.1,0,0.2-0.1,0.4-0.1c0.2,0,0.3,0,0.5,0.1
			c0.2,0.1,0.3,0.2,0.4,0.3s0.2,0.2,0.3,0.4c0.1,0.2,0.1,0.3,0.1,0.5s0,0.3-0.1,0.5c-0.1,0.2-0.2,0.3-0.3,0.4
			c-0.1,0.1-0.3,0.2-0.4,0.3c-0.2,0.1-0.3,0.1-0.5,0.1c-0.1,0-0.2,0-0.4,0c-0.1,0-0.2-0.1-0.3-0.1v1.1H19.1z M20.4,6.5
			c-0.1,0-0.2,0-0.3,0.1c-0.1,0-0.2,0.1-0.3,0.2v1c0.1,0.1,0.2,0.1,0.3,0.2c0.1,0,0.2,0.1,0.3,0.1c0.2,0,0.4-0.1,0.5-0.2
			c0.1-0.1,0.2-0.3,0.2-0.5c0-0.2-0.1-0.4-0.2-0.5C20.7,6.5,20.6,6.5,20.4,6.5z"/>
		<path class="st10" d="M22,7.2c0-0.2,0-0.3,0.1-0.5c0.1-0.2,0.2-0.3,0.3-0.4c0.1-0.1,0.3-0.2,0.4-0.3c0.2-0.1,0.3-0.1,0.5-0.1
			c0.2,0,0.4,0,0.5,0.1c0.2,0.1,0.3,0.2,0.4,0.3c0.1,0.1,0.2,0.2,0.3,0.4c0.1,0.2,0.1,0.3,0.1,0.5c0,0.2,0,0.3-0.1,0.5
			c-0.1,0.2-0.2,0.3-0.3,0.4c-0.1,0.1-0.3,0.2-0.4,0.3c-0.2,0.1-0.3,0.1-0.5,0.1c-0.2,0-0.4,0-0.5-0.1c-0.2-0.1-0.3-0.2-0.4-0.3
			c-0.1-0.1-0.2-0.2-0.3-0.4C22.1,7.5,22,7.4,22,7.2z M23.4,7.9c0.2,0,0.4-0.1,0.5-0.2c0.1-0.1,0.2-0.3,0.2-0.5
			c0-0.2-0.1-0.4-0.2-0.5c-0.1-0.1-0.3-0.2-0.5-0.2S23,6.5,22.9,6.7c-0.1,0.1-0.2,0.3-0.2,0.5c0,0.2,0.1,0.4,0.2,0.5
			C23,7.8,23.2,7.9,23.4,7.9z"/>
		<path class="st10" d="M25.1,8.4V6h0.7v0.3C25.8,6.1,25.9,6,26,6c0.1-0.1,0.2-0.1,0.4-0.1c0.1,0,0.1,0,0.2,0c0,0,0.1,0,0.1,0v0.6
			c0,0-0.1,0-0.2,0c-0.1,0-0.1,0-0.2,0c-0.1,0-0.2,0-0.4,0.1c-0.1,0.1-0.2,0.2-0.3,0.3v1.6H25.1z"/>
		<path class="st10" d="M4.7,14.1c-0.3,0-0.5-0.1-0.7-0.2s-0.3-0.3-0.3-0.5c0-0.2,0.1-0.4,0.3-0.5c0.2-0.1,0.4-0.2,0.7-0.2
			c0.1,0,0.2,0,0.3,0c0.1,0,0.2,0,0.3,0.1v-0.2c0-0.1,0-0.2-0.1-0.3c-0.1-0.1-0.2-0.1-0.4-0.1c-0.1,0-0.2,0-0.3,0
			c-0.1,0-0.3,0.1-0.4,0.2l-0.2-0.5c0.2-0.1,0.4-0.2,0.6-0.2c0.2,0,0.4-0.1,0.5-0.1c0.3,0,0.6,0.1,0.8,0.2C6,12,6.1,12.2,6.1,12.5
			v1.6H5.4v-0.2C5.3,14,5.2,14,5.1,14.1C5,14.1,4.8,14.1,4.7,14.1z M4.4,13.3c0,0.1,0,0.2,0.1,0.2c0.1,0.1,0.2,0.1,0.3,0.1
			c0.1,0,0.2,0,0.3,0c0.1,0,0.2-0.1,0.3-0.1v-0.4c-0.1,0-0.2-0.1-0.3-0.1c-0.1,0-0.2,0-0.3,0c-0.1,0-0.3,0-0.4,0.1
			C4.4,13.2,4.4,13.2,4.4,13.3z"/>
		<path class="st10" d="M8.4,14.1v-0.2C8.3,13.9,8.2,14,8.1,14c-0.1,0-0.2,0.1-0.4,0.1c-0.2,0-0.3,0-0.5-0.1
			c-0.2-0.1-0.3-0.2-0.4-0.3c-0.1-0.1-0.2-0.2-0.3-0.4c-0.1-0.2-0.1-0.3-0.1-0.5c0-0.2,0-0.3,0.1-0.5c0.1-0.2,0.2-0.3,0.3-0.4
			c0.1-0.1,0.3-0.2,0.4-0.3c0.2-0.1,0.3-0.1,0.5-0.1c0.1,0,0.2,0,0.4,0c0.1,0,0.2,0.1,0.3,0.1v-1l0.7-0.1v3.4H8.4z M7.1,12.8
			c0,0.2,0.1,0.4,0.2,0.5c0.1,0.1,0.3,0.2,0.5,0.2c0.1,0,0.2,0,0.3-0.1c0.1,0,0.2-0.1,0.3-0.2v-1c-0.1-0.1-0.2-0.1-0.3-0.2
			c-0.1,0-0.2-0.1-0.3-0.1c-0.2,0-0.4,0.1-0.5,0.2C7.1,12.5,7.1,12.6,7.1,12.8z"/>
		<path class="st10" d="M11.8,13.8c-0.2,0.1-0.3,0.2-0.5,0.3c-0.2,0.1-0.3,0.1-0.5,0.1c-0.2,0-0.4,0-0.5-0.1
			c-0.2-0.1-0.3-0.2-0.4-0.3c-0.1-0.1-0.2-0.2-0.3-0.4c-0.1-0.2-0.1-0.3-0.1-0.5c0-0.2,0-0.3,0.1-0.5c0.1-0.2,0.2-0.3,0.3-0.4
			c0.1-0.1,0.3-0.2,0.4-0.3c0.2-0.1,0.3-0.1,0.5-0.1c0.2,0,0.3,0,0.5,0.1c0.2,0.1,0.3,0.2,0.4,0.3c0.1,0.1,0.2,0.3,0.3,0.4
			c0.1,0.2,0.1,0.3,0.1,0.5v0.2h-1.9c0,0.2,0.1,0.3,0.3,0.4c0.1,0.1,0.3,0.1,0.4,0.1c0.1,0,0.2,0,0.3-0.1c0.1,0,0.2-0.1,0.2-0.1
			L11.8,13.8z M10.7,12.1c-0.1,0-0.3,0-0.4,0.1c-0.1,0.1-0.2,0.2-0.2,0.4h1.2c0-0.1-0.1-0.3-0.2-0.4C11,12.1,10.9,12.1,10.7,12.1z"
			/>
		<path class="st10" d="M13,10.6v3.4h-0.7v-3.3L13,10.6z"/>
		<path class="st10" d="M14.3,14.1c-0.3,0-0.5-0.1-0.7-0.2c-0.2-0.1-0.3-0.3-0.3-0.5c0-0.2,0.1-0.4,0.3-0.5c0.2-0.1,0.4-0.2,0.8-0.2
			c0.1,0,0.2,0,0.3,0c0.1,0,0.2,0,0.3,0.1v-0.2c0-0.1,0-0.2-0.1-0.3c-0.1-0.1-0.2-0.1-0.4-0.1c-0.1,0-0.2,0-0.3,0
			c-0.1,0-0.3,0.1-0.4,0.2l-0.2-0.5c0.2-0.1,0.4-0.2,0.6-0.2c0.2,0,0.4-0.1,0.5-0.1c0.3,0,0.6,0.1,0.8,0.2c0.2,0.2,0.3,0.4,0.3,0.7
			v1.6H15v-0.2c-0.1,0.1-0.2,0.1-0.3,0.2C14.6,14.1,14.5,14.1,14.3,14.1z M14,13.3c0,0.1,0,0.2,0.1,0.2c0.1,0.1,0.2,0.1,0.3,0.1
			c0.1,0,0.2,0,0.3,0c0.1,0,0.2-0.1,0.3-0.1v-0.4c-0.1,0-0.2-0.1-0.3-0.1c-0.1,0-0.2,0-0.3,0c-0.1,0-0.3,0-0.4,0.1
			C14.1,13.2,14,13.2,14,13.3z"/>
		<path class="st10" d="M16.2,14.1v-2.5h0.7v0.2c0.1-0.1,0.2-0.1,0.3-0.2c0.1,0,0.2-0.1,0.4-0.1c0.3,0,0.5,0.1,0.7,0.3
			c0.2,0.2,0.3,0.4,0.3,0.7v1.5h-0.7v-1.4c0-0.2,0-0.3-0.1-0.4c-0.1-0.1-0.2-0.1-0.4-0.1c-0.1,0-0.2,0-0.3,0.1
			c-0.1,0-0.2,0.1-0.2,0.2v1.7H16.2z"/>
		<path class="st10" d="M19.3,13.4v-1.2h-0.5v-0.5h0.5V11l0.7-0.1v0.8h0.7v0.5h-0.7v1.1c0,0.1,0,0.2,0.1,0.2c0.1,0,0.1,0.1,0.3,0.1
			c0.1,0,0.1,0,0.2,0s0.1,0,0.2,0V14c-0.1,0-0.2,0-0.3,0.1c-0.1,0-0.2,0-0.3,0c-0.3,0-0.5-0.1-0.6-0.2
			C19.3,13.8,19.3,13.6,19.3,13.4z"/>
		<path class="st10" d="M21.7,14.1c-0.3,0-0.5-0.1-0.7-0.2c-0.2-0.1-0.3-0.3-0.3-0.5c0-0.2,0.1-0.4,0.3-0.5c0.2-0.1,0.4-0.2,0.8-0.2
			c0.1,0,0.2,0,0.3,0c0.1,0,0.2,0,0.3,0.1v-0.2c0-0.1,0-0.2-0.1-0.3c-0.1-0.1-0.2-0.1-0.4-0.1c-0.1,0-0.2,0-0.3,0
			c-0.1,0-0.3,0.1-0.4,0.2l-0.2-0.5c0.2-0.1,0.4-0.2,0.6-0.2c0.2,0,0.4-0.1,0.5-0.1c0.3,0,0.6,0.1,0.8,0.2c0.2,0.2,0.3,0.4,0.3,0.7
			v1.6h-0.6v-0.2c-0.1,0.1-0.2,0.1-0.3,0.2C22,14.1,21.9,14.1,21.7,14.1z M21.4,13.3c0,0.1,0,0.2,0.1,0.2c0.1,0.1,0.2,0.1,0.3,0.1
			c0.1,0,0.2,0,0.3,0c0.1,0,0.2-0.1,0.3-0.1v-0.4c-0.1,0-0.2-0.1-0.3-0.1c-0.1,0-0.2,0-0.3,0c-0.1,0-0.3,0-0.4,0.1
			C21.5,13.2,21.4,13.2,21.4,13.3z"/>
		<path class="st10" d="M25.5,14.1v-0.2c-0.1,0.1-0.2,0.1-0.3,0.2c-0.1,0-0.2,0.1-0.4,0.1c-0.2,0-0.3,0-0.5-0.1
			c-0.2-0.1-0.3-0.2-0.4-0.3s-0.2-0.2-0.3-0.4c-0.1-0.2-0.1-0.3-0.1-0.5c0-0.2,0-0.3,0.1-0.5c0.1-0.2,0.2-0.3,0.3-0.4
			s0.3-0.2,0.4-0.3c0.2-0.1,0.3-0.1,0.5-0.1c0.1,0,0.2,0,0.4,0c0.1,0,0.2,0.1,0.3,0.1v-1l0.7-0.1v3.4H25.5z M24.1,12.8
			c0,0.2,0.1,0.4,0.2,0.5c0.1,0.1,0.3,0.2,0.5,0.2c0.1,0,0.2,0,0.3-0.1c0.1,0,0.2-0.1,0.3-0.2v-1c-0.1-0.1-0.2-0.1-0.3-0.2
			c-0.1,0-0.2-0.1-0.3-0.1c-0.2,0-0.4,0.1-0.5,0.2C24.2,12.5,24.1,12.6,24.1,12.8z"/>
		<path class="st10" d="M26.5,12.8c0-0.2,0-0.3,0.1-0.5c0.1-0.2,0.2-0.3,0.3-0.4c0.1-0.1,0.3-0.2,0.4-0.3c0.2-0.1,0.3-0.1,0.5-0.1
			c0.2,0,0.4,0,0.5,0.1c0.2,0.1,0.3,0.2,0.4,0.3c0.1,0.1,0.2,0.3,0.3,0.4c0.1,0.2,0.1,0.3,0.1,0.5c0,0.2,0,0.3-0.1,0.5
			c-0.1,0.2-0.2,0.3-0.3,0.4c-0.1,0.1-0.3,0.2-0.4,0.3c-0.2,0.1-0.3,0.1-0.5,0.1c-0.2,0-0.4,0-0.5-0.1c-0.2-0.1-0.3-0.2-0.4-0.3
			c-0.1-0.1-0.2-0.2-0.3-0.4C26.5,13.2,26.5,13,26.5,12.8z M27.8,13.6c0.2,0,0.4-0.1,0.5-0.2c0.1-0.1,0.2-0.3,0.2-0.5
			c0-0.2-0.1-0.4-0.2-0.5c-0.1-0.1-0.3-0.2-0.5-0.2c-0.2,0-0.4,0.1-0.5,0.2c-0.1,0.1-0.2,0.3-0.2,0.5c0,0.2,0.1,0.4,0.2,0.5
			C27.5,13.5,27.6,13.6,27.8,13.6z"/>
	</g>
	<g class="st4">
		<path class="st10" d="M3.8,8.6v-4h2c0.2,0,0.4,0,0.5,0.1C6.5,4.8,6.7,4.9,6.8,5C6.9,5.1,7,5.3,7,5.4c0.1,0.2,0.1,0.3,0.1,0.5
			c0,0.2,0,0.3-0.1,0.5C7,6.6,6.9,6.7,6.8,6.8C6.7,6.9,6.5,7,6.3,7.1C6.2,7.1,6,7.2,5.8,7.2H4.6v1.5H3.8z M5.7,5.4H4.6v1.1h1.1
			c0.2,0,0.3,0,0.4-0.1c0.1-0.1,0.2-0.2,0.2-0.4c0-0.2-0.1-0.3-0.2-0.4C6,5.4,5.9,5.4,5.7,5.4z"/>
		<path class="st10" d="M8.4,8.7c-0.3,0-0.6-0.1-0.8-0.3C7.5,8.3,7.4,8.1,7.4,7.8c0-0.3,0.1-0.5,0.3-0.7C7.9,7,8.2,6.9,8.6,6.9
			c0.1,0,0.2,0,0.4,0c0.1,0,0.2,0,0.4,0.1V6.8c0-0.2-0.1-0.3-0.2-0.4C9,6.3,8.9,6.3,8.7,6.3c-0.1,0-0.3,0-0.4,0.1
			C8.1,6.4,8,6.4,7.8,6.5L7.5,6c0.2-0.1,0.5-0.2,0.7-0.2c0.2-0.1,0.4-0.1,0.6-0.1c0.4,0,0.7,0.1,0.9,0.3c0.2,0.2,0.3,0.5,0.3,0.8
			v1.9H9.3V8.4C9.2,8.5,9,8.6,8.9,8.6C8.8,8.7,8.6,8.7,8.4,8.7z M8.1,7.8c0,0.1,0,0.2,0.1,0.3c0.1,0.1,0.2,0.1,0.4,0.1
			c0.1,0,0.2,0,0.4,0C9.1,8.1,9.2,8,9.3,8V7.5C9.2,7.5,9.1,7.4,9,7.4c-0.1,0-0.2,0-0.3,0c-0.2,0-0.3,0-0.4,0.1
			C8.2,7.6,8.1,7.7,8.1,7.8z"/>
		<path class="st10" d="M11,5.3c-0.1,0-0.2,0-0.3-0.1c-0.1-0.1-0.1-0.2-0.1-0.3s0-0.2,0.1-0.3c0.1-0.1,0.2-0.1,0.3-0.1
			c0.1,0,0.2,0,0.3,0.1s0.1,0.2,0.1,0.3s0,0.2-0.1,0.3C11.3,5.3,11.2,5.3,11,5.3z M11.4,5.7v3h-0.8v-3H11.4z"/>
		<path class="st10" d="M14.7,8.3c-0.2,0.1-0.4,0.3-0.6,0.3c-0.2,0.1-0.4,0.1-0.6,0.1c-0.2,0-0.4,0-0.6-0.1
			c-0.2-0.1-0.4-0.2-0.5-0.3C12.2,8.1,12.1,8,12,7.8c-0.1-0.2-0.1-0.4-0.1-0.6c0-0.2,0-0.4,0.1-0.6c0.1-0.2,0.2-0.3,0.3-0.5
			c0.1-0.1,0.3-0.2,0.5-0.3c0.2-0.1,0.4-0.1,0.6-0.1c0.2,0,0.4,0,0.6,0.1c0.2,0.1,0.3,0.2,0.5,0.3c0.1,0.1,0.2,0.3,0.3,0.5
			c0.1,0.2,0.1,0.4,0.1,0.6v0.2h-2.2c0.1,0.2,0.2,0.3,0.3,0.4c0.2,0.1,0.3,0.2,0.5,0.2c0.1,0,0.3,0,0.4-0.1c0.1,0,0.2-0.1,0.3-0.2
			L14.7,8.3z M13.4,6.3c-0.2,0-0.3,0.1-0.5,0.2c-0.1,0.1-0.2,0.3-0.3,0.4h1.4c0-0.2-0.1-0.3-0.3-0.4S13.6,6.3,13.4,6.3z"/>
		<path class="st10" d="M15.4,8.6v-3h0.8v0.2c0.1-0.1,0.2-0.2,0.4-0.2c0.1,0,0.3-0.1,0.4-0.1c0.2,0,0.4,0,0.5,0.1
			c0.2,0.1,0.3,0.2,0.4,0.3c0.1-0.1,0.3-0.3,0.4-0.3c0.2-0.1,0.3-0.1,0.6-0.1c0.3,0,0.6,0.1,0.8,0.3c0.2,0.2,0.3,0.5,0.3,0.8v1.8
			h-0.8V6.9c0-0.2-0.1-0.3-0.1-0.4c-0.1-0.1-0.2-0.2-0.4-0.2c-0.1,0-0.2,0-0.3,0.1c-0.1,0.1-0.2,0.1-0.2,0.2c0,0,0,0.1,0,0.1
			c0,0,0,0.1,0,0.1v1.8h-0.8V6.9c0-0.2-0.1-0.3-0.2-0.4c-0.1-0.1-0.2-0.2-0.4-0.2c-0.1,0-0.2,0-0.3,0.1c-0.1,0-0.2,0.1-0.2,0.2v2.1
			H15.4z"/>
		<path class="st10" d="M23.2,8.3c-0.2,0.1-0.4,0.3-0.6,0.3c-0.2,0.1-0.4,0.1-0.6,0.1c-0.2,0-0.4,0-0.6-0.1
			c-0.2-0.1-0.4-0.2-0.5-0.3c-0.1-0.1-0.3-0.3-0.3-0.5c-0.1-0.2-0.1-0.4-0.1-0.6c0-0.2,0-0.4,0.1-0.6c0.1-0.2,0.2-0.3,0.3-0.5
			c0.1-0.1,0.3-0.2,0.5-0.3c0.2-0.1,0.4-0.1,0.6-0.1c0.2,0,0.4,0,0.6,0.1c0.2,0.1,0.3,0.2,0.5,0.3c0.1,0.1,0.2,0.3,0.3,0.5
			c0.1,0.2,0.1,0.4,0.1,0.6v0.2h-2.2c0.1,0.2,0.2,0.3,0.3,0.4C21.6,8,21.8,8.1,22,8.1c0.1,0,0.3,0,0.4-0.1c0.1,0,0.2-0.1,0.3-0.2
			L23.2,8.3z M21.9,6.3c-0.2,0-0.3,0.1-0.5,0.2c-0.1,0.1-0.2,0.3-0.3,0.4h1.4c0-0.2-0.1-0.3-0.3-0.4C22.2,6.3,22.1,6.3,21.9,6.3z"/>
		<path class="st10" d="M23.8,8.6v-3h0.8v0.2c0.1-0.1,0.2-0.2,0.4-0.2c0.1,0,0.3-0.1,0.5-0.1c0.3,0,0.6,0.1,0.8,0.3
			c0.2,0.2,0.3,0.5,0.3,0.8v1.8h-0.8V6.9c0-0.2-0.1-0.3-0.2-0.4c-0.1-0.1-0.3-0.2-0.4-0.2c-0.1,0-0.2,0-0.3,0.1
			c-0.1,0.1-0.2,0.1-0.3,0.2v2H23.8z"/>
		<path class="st10" d="M27.5,7.8V6.3h-0.6V5.7h0.6V4.9l0.8-0.2v0.9h0.8v0.7h-0.8v1.3c0,0.1,0,0.2,0.1,0.3C28.4,8,28.5,8,28.7,8
			c0.1,0,0.1,0,0.2,0C28.9,8,29,8,29.1,8v0.6c-0.1,0-0.2,0-0.3,0.1c-0.1,0-0.2,0-0.3,0c-0.3,0-0.6-0.1-0.7-0.2
			C27.6,8.3,27.5,8.1,27.5,7.8z"/>
		<path class="st10" d="M6.8,13.6c-0.3,0-0.6-0.1-0.8-0.3c-0.2-0.2-0.3-0.4-0.3-0.7c0-0.3,0.1-0.5,0.3-0.7s0.5-0.2,0.9-0.2
			c0.1,0,0.2,0,0.4,0c0.1,0,0.2,0,0.4,0.1v-0.2c0-0.2-0.1-0.3-0.2-0.4c-0.1-0.1-0.3-0.1-0.5-0.1c-0.1,0-0.3,0-0.4,0.1
			c-0.1,0-0.3,0.1-0.5,0.2l-0.3-0.6c0.2-0.1,0.5-0.2,0.7-0.2c0.2-0.1,0.4-0.1,0.6-0.1c0.4,0,0.7,0.1,0.9,0.3s0.3,0.5,0.3,0.8v1.9
			H7.7v-0.2c-0.1,0.1-0.3,0.2-0.4,0.2C7.1,13.6,7,13.6,6.8,13.6z M6.5,12.7c0,0.1,0,0.2,0.1,0.3C6.7,13,6.8,13.1,7,13.1
			c0.1,0,0.2,0,0.4,0c0.1,0,0.2-0.1,0.3-0.1v-0.4c-0.1,0-0.2-0.1-0.3-0.1c-0.1,0-0.2,0-0.3,0c-0.2,0-0.3,0-0.4,0.1
			C6.5,12.5,6.5,12.6,6.5,12.7z"/>
		<path class="st10" d="M9,13.6v-3h0.8v0.2c0.1-0.1,0.2-0.2,0.4-0.2c0.1,0,0.3-0.1,0.5-0.1c0.3,0,0.6,0.1,0.8,0.3
			c0.2,0.2,0.3,0.5,0.3,0.8v1.8H11v-1.7c0-0.2-0.1-0.3-0.2-0.4c-0.1-0.1-0.3-0.2-0.4-0.2c-0.1,0-0.2,0-0.3,0.1
			c-0.1,0.1-0.2,0.1-0.3,0.2v2H9z"/>
		<path class="st10" d="M12.7,12.7v-1.5h-0.6v-0.7h0.6V9.9l0.8-0.2v0.9h0.8v0.7h-0.8v1.3c0,0.1,0,0.2,0.1,0.3
			c0.1,0.1,0.2,0.1,0.3,0.1c0.1,0,0.1,0,0.2,0c0.1,0,0.1,0,0.2-0.1v0.6c-0.1,0-0.2,0-0.3,0.1c-0.1,0-0.2,0-0.3,0
			c-0.3,0-0.6-0.1-0.7-0.2C12.8,13.3,12.7,13,12.7,12.7z"/>
		<path class="st10" d="M15.1,10.3c-0.1,0-0.2,0-0.3-0.1c-0.1-0.1-0.1-0.2-0.1-0.3c0-0.1,0-0.2,0.1-0.3s0.2-0.1,0.3-0.1
			c0.1,0,0.2,0,0.3,0.1s0.1,0.2,0.1,0.3c0,0.1,0,0.2-0.1,0.3C15.3,10.2,15.2,10.3,15.1,10.3z M15.5,10.6v3h-0.8v-3H15.5z"/>
		<path class="st10" d="M17.5,13c0.1,0,0.3,0,0.4-0.1c0.1-0.1,0.2-0.1,0.3-0.2l0.5,0.5c-0.2,0.2-0.3,0.3-0.5,0.4
			c-0.2,0.1-0.4,0.1-0.7,0.1c-0.2,0-0.4,0-0.6-0.1c-0.2-0.1-0.4-0.2-0.5-0.3c-0.1-0.1-0.2-0.3-0.3-0.5c-0.1-0.2-0.1-0.4-0.1-0.6
			c0-0.2,0-0.4,0.1-0.6c0.1-0.2,0.2-0.3,0.3-0.5c0.1-0.1,0.3-0.2,0.5-0.3c0.2-0.1,0.4-0.1,0.6-0.1c0.2,0,0.5,0,0.7,0.1
			c0.2,0.1,0.4,0.2,0.6,0.4l-0.5,0.5c-0.1-0.1-0.2-0.2-0.3-0.3c-0.1-0.1-0.3-0.1-0.4-0.1c-0.2,0-0.4,0.1-0.6,0.2
			c-0.2,0.2-0.2,0.4-0.2,0.6c0,0.2,0.1,0.4,0.2,0.6C17.1,12.9,17.3,13,17.5,13z"/>
		<path class="st10" d="M19.5,10.3c-0.1,0-0.2,0-0.3-0.1C19.1,10.1,19,10,19,9.8c0-0.1,0-0.2,0.1-0.3s0.2-0.1,0.3-0.1
			c0.1,0,0.2,0,0.3,0.1c0.1,0.1,0.1,0.2,0.1,0.3c0,0.1,0,0.2-0.1,0.3C19.7,10.2,19.6,10.3,19.5,10.3z M19.9,10.6v3h-0.8v-3H19.9z"/>
		<path class="st10" d="M20.5,14.8v-4.1h0.8v0.2c0.1-0.1,0.2-0.2,0.4-0.2c0.1,0,0.3-0.1,0.4-0.1c0.2,0,0.4,0,0.6,0.1
			c0.2,0.1,0.3,0.2,0.5,0.3c0.1,0.1,0.2,0.3,0.3,0.5c0.1,0.2,0.1,0.4,0.1,0.6c0,0.2,0,0.4-0.1,0.6c-0.1,0.2-0.2,0.3-0.3,0.5
			c-0.1,0.1-0.3,0.2-0.5,0.3c-0.2,0.1-0.4,0.1-0.6,0.1c-0.1,0-0.3,0-0.4-0.1c-0.1,0-0.3-0.1-0.4-0.2v1.4H20.5z M21.9,11.3
			c-0.1,0-0.3,0-0.4,0.1c-0.1,0-0.2,0.1-0.3,0.2v1.2c0.1,0.1,0.2,0.1,0.3,0.2s0.3,0.1,0.4,0.1c0.2,0,0.4-0.1,0.6-0.2
			c0.2-0.2,0.2-0.4,0.2-0.6c0-0.2-0.1-0.4-0.3-0.6C22.4,11.3,22.2,11.3,21.9,11.3z"/>
		<path class="st10" d="M26.7,13.2c-0.2,0.1-0.4,0.3-0.6,0.3c-0.2,0.1-0.4,0.1-0.6,0.1c-0.2,0-0.4,0-0.6-0.1
			c-0.2-0.1-0.4-0.2-0.5-0.3c-0.1-0.1-0.3-0.3-0.3-0.5c-0.1-0.2-0.1-0.4-0.1-0.6c0-0.2,0-0.4,0.1-0.6s0.2-0.3,0.3-0.5
			c0.1-0.1,0.3-0.2,0.5-0.3c0.2-0.1,0.4-0.1,0.6-0.1c0.2,0,0.4,0,0.6,0.1c0.2,0.1,0.3,0.2,0.5,0.3c0.1,0.1,0.2,0.3,0.3,0.5
			c0.1,0.2,0.1,0.4,0.1,0.6v0.2h-2.2c0.1,0.2,0.2,0.3,0.3,0.4c0.2,0.1,0.3,0.2,0.5,0.2c0.1,0,0.3,0,0.4-0.1c0.1,0,0.2-0.1,0.3-0.2
			L26.7,13.2z M25.4,11.2c-0.2,0-0.3,0.1-0.5,0.2c-0.1,0.1-0.2,0.3-0.3,0.4h1.4c0-0.2-0.1-0.3-0.3-0.4
			C25.8,11.3,25.6,11.2,25.4,11.2z M25.6,9.4h0.9l-0.8,0.7H25L25.6,9.4z"/>
	</g>
	<g class="st4">
		<path class="st10" d="M4.8,10.5l-1-2.4h0.5L5.1,10l0.7-1.9h0.5l-1,2.4H4.8z"/>
		<path class="st10" d="M6.2,9.6c0-0.1,0-0.3,0.1-0.4C6.3,9.1,6.4,9,6.5,9c0.1-0.1,0.2-0.1,0.3-0.2c0.1,0,0.2-0.1,0.4-0.1
			s0.3,0,0.4,0.1c0.1,0,0.2,0.1,0.3,0.2C7.9,9,8,9.1,8,9.3c0,0.1,0.1,0.2,0.1,0.4c0,0.1,0,0.3-0.1,0.4c0,0.1-0.1,0.2-0.2,0.3
			c-0.1,0.1-0.2,0.1-0.3,0.2c-0.1,0-0.2,0.1-0.4,0.1s-0.3,0-0.4-0.1c-0.1,0-0.2-0.1-0.3-0.2c-0.1-0.1-0.2-0.2-0.2-0.3
			C6.2,9.9,6.2,9.7,6.2,9.6z M7.2,10.1c0.1,0,0.3,0,0.3-0.1c0.1-0.1,0.1-0.2,0.1-0.4c0-0.1,0-0.3-0.1-0.4C7.4,9.2,7.3,9.1,7.2,9.1
			C7,9.1,6.9,9.2,6.8,9.3C6.7,9.4,6.7,9.5,6.7,9.6c0,0.1,0,0.3,0.1,0.4C6.9,10.1,7,10.1,7.2,10.1z"/>
		<path class="st10" d="M8.3,9.6c0-0.1,0-0.3,0.1-0.4C8.4,9.1,8.5,9,8.6,9c0.1-0.1,0.2-0.1,0.3-0.2c0.1,0,0.2-0.1,0.4-0.1
			c0.1,0,0.3,0,0.4,0.1c0.1,0,0.2,0.1,0.3,0.2C10,9,10.1,9.1,10.1,9.3c0,0.1,0.1,0.2,0.1,0.4c0,0.1,0,0.3-0.1,0.4
			c0,0.1-0.1,0.2-0.2,0.3c-0.1,0.1-0.2,0.1-0.3,0.2c-0.1,0-0.2,0.1-0.4,0.1c-0.1,0-0.3,0-0.4-0.1c-0.1,0-0.2-0.1-0.3-0.2
			c-0.1-0.1-0.2-0.2-0.2-0.3C8.3,9.9,8.3,9.7,8.3,9.6z M9.3,10.1c0.1,0,0.3,0,0.3-0.1c0.1-0.1,0.1-0.2,0.1-0.4c0-0.1,0-0.3-0.1-0.4
			C9.5,9.2,9.4,9.1,9.3,9.1C9.1,9.1,9,9.2,8.9,9.3C8.8,9.4,8.8,9.5,8.8,9.6c0,0.1,0,0.3,0.1,0.4C9,10.1,9.1,10.1,9.3,10.1z"/>
		<path class="st10" d="M10.5,10.5V8.7H11v0.2c0.1-0.1,0.1-0.1,0.2-0.2c0.1,0,0.2-0.1,0.3-0.1c0,0,0.1,0,0.1,0c0,0,0.1,0,0.1,0v0.4
			c0,0-0.1,0-0.1,0c0,0-0.1,0-0.1,0c-0.1,0-0.2,0-0.3,0.1c-0.1,0-0.1,0.1-0.2,0.2v1.1H10.5z"/>
		<path class="st10" d="M12.3,8.7v1c0,0.1,0,0.2,0.1,0.3c0.1,0.1,0.2,0.1,0.3,0.1c0.1,0,0.2,0,0.2,0c0.1,0,0.1-0.1,0.2-0.1V8.7h0.5
			v1.8h-0.5v-0.1c-0.1,0.1-0.1,0.1-0.2,0.1c-0.1,0-0.2,0-0.3,0c-0.2,0-0.4-0.1-0.5-0.2c-0.1-0.1-0.2-0.3-0.2-0.5V8.7H12.3z"/>
		<path class="st10" d="M14.1,8.5c-0.1,0-0.1,0-0.2-0.1c-0.1-0.1-0.1-0.1-0.1-0.2c0-0.1,0-0.1,0.1-0.2C14,8,14.1,8,14.1,8
			c0.1,0,0.1,0,0.2,0.1c0.1,0.1,0.1,0.1,0.1,0.2c0,0.1,0,0.1-0.1,0.2C14.3,8.5,14.2,8.5,14.1,8.5z M14.4,8.7v1.8h-0.5V8.7H14.4z"/>
		<path class="st10" d="M15,10V9.1h-0.4V8.7H15V8.3l0.5-0.1v0.6H16v0.4h-0.5v0.8c0,0.1,0,0.1,0.1,0.2c0,0,0.1,0.1,0.2,0.1
			c0,0,0.1,0,0.1,0c0,0,0.1,0,0.1,0v0.4c0,0-0.1,0-0.2,0c-0.1,0-0.1,0-0.2,0c-0.2,0-0.3,0-0.4-0.1C15,10.3,15,10.2,15,10z"/>
		<path class="st10" d="M18.1,9.6c0,0.1,0,0.2-0.1,0.4c0,0.1-0.1,0.2-0.2,0.3c-0.1,0.1-0.2,0.1-0.3,0.2c-0.1,0-0.2,0.1-0.4,0.1
			c-0.1,0-0.2,0-0.3,0c-0.1,0-0.2-0.1-0.2-0.1v0.1h-0.5V8.1L16.7,8v0.9c0.1-0.1,0.1-0.1,0.2-0.1c0.1,0,0.2,0,0.3,0
			c0.1,0,0.2,0,0.4,0.1c0.1,0,0.2,0.1,0.3,0.2c0.1,0.1,0.1,0.2,0.2,0.3C18,9.4,18.1,9.5,18.1,9.6z M17.1,9.1c-0.1,0-0.2,0-0.2,0
			c-0.1,0-0.1,0.1-0.2,0.1V10c0,0,0.1,0.1,0.2,0.1c0.1,0,0.2,0,0.2,0c0.1,0,0.3,0,0.4-0.1c0.1-0.1,0.1-0.2,0.1-0.4
			c0-0.1-0.1-0.3-0.2-0.4C17.3,9.2,17.2,9.1,17.1,9.1z"/>
		<path class="st10" d="M19.9,10.3c-0.1,0.1-0.2,0.2-0.3,0.2c-0.1,0-0.2,0.1-0.4,0.1c-0.1,0-0.3,0-0.4-0.1c-0.1,0-0.2-0.1-0.3-0.2
			c-0.1-0.1-0.2-0.2-0.2-0.3c0-0.1-0.1-0.2-0.1-0.4c0-0.1,0-0.2,0.1-0.4c0-0.1,0.1-0.2,0.2-0.3c0.1-0.1,0.2-0.1,0.3-0.2
			c0.1,0,0.2-0.1,0.4-0.1c0.1,0,0.2,0,0.3,0.1c0.1,0,0.2,0.1,0.3,0.2C19.9,9.1,20,9.2,20,9.3c0,0.1,0.1,0.2,0.1,0.4v0.1h-1.3
			c0,0.1,0.1,0.2,0.2,0.3c0.1,0.1,0.2,0.1,0.3,0.1c0.1,0,0.2,0,0.2,0c0.1,0,0.1-0.1,0.2-0.1L19.9,10.3z M19.2,9.1
			c-0.1,0-0.2,0-0.3,0.1c-0.1,0.1-0.1,0.2-0.2,0.3h0.9c0-0.1-0.1-0.2-0.2-0.3C19.4,9.1,19.3,9.1,19.2,9.1z"/>
		<path class="st10" d="M20.5,10V9.1h-0.4V8.7h0.4V8.3L21,8.2v0.6h0.5v0.4H21v0.8c0,0.1,0,0.1,0.1,0.2c0,0,0.1,0.1,0.2,0.1
			c0,0,0.1,0,0.1,0c0,0,0.1,0,0.1,0v0.4c0,0-0.1,0-0.2,0c-0.1,0-0.1,0-0.2,0c-0.2,0-0.3,0-0.4-0.1C20.6,10.3,20.5,10.2,20.5,10z"/>
		<path class="st10" d="M22.3,10.5c-0.2,0-0.3-0.1-0.5-0.2c-0.1-0.1-0.2-0.2-0.2-0.4c0-0.2,0.1-0.3,0.2-0.4c0.1-0.1,0.3-0.1,0.5-0.1
			c0.1,0,0.1,0,0.2,0s0.1,0,0.2,0.1V9.4c0-0.1,0-0.2-0.1-0.2c-0.1-0.1-0.2-0.1-0.3-0.1c-0.1,0-0.2,0-0.2,0c-0.1,0-0.2,0.1-0.3,0.1
			l-0.2-0.3c0.1-0.1,0.3-0.1,0.4-0.1c0.1,0,0.3,0,0.4,0c0.2,0,0.4,0.1,0.6,0.2c0.1,0.1,0.2,0.3,0.2,0.5v1.2h-0.5v-0.1
			c-0.1,0.1-0.2,0.1-0.2,0.1C22.5,10.5,22.4,10.5,22.3,10.5z M22.1,10c0,0.1,0,0.1,0.1,0.2s0.1,0.1,0.2,0.1c0.1,0,0.1,0,0.2,0
			c0.1,0,0.1,0,0.2-0.1V9.8c-0.1,0-0.1,0-0.2,0c-0.1,0-0.1,0-0.2,0c-0.1,0-0.2,0-0.3,0.1C22.1,9.9,22.1,9.9,22.1,10z"/>
		<path class="st10" d="M24.1,8v2.5h-0.5V8.1L24.1,8z"/>
		<path class="st10" d="M24.7,8.5c-0.1,0-0.1,0-0.2-0.1c-0.1-0.1-0.1-0.1-0.1-0.2c0-0.1,0-0.1,0.1-0.2C24.5,8,24.6,8,24.7,8
			c0.1,0,0.1,0,0.2,0.1c0.1,0.1,0.1,0.1,0.1,0.2c0,0.1,0,0.1-0.1,0.2C24.8,8.5,24.8,8.5,24.7,8.5z M24.9,8.7v1.8h-0.5V8.7H24.9z"/>
		<path class="st10" d="M25.3,10.5V8.7h0.5v0.1c0.1-0.1,0.1-0.1,0.2-0.1c0.1,0,0.2,0,0.3,0c0.2,0,0.4,0.1,0.5,0.2
			c0.1,0.1,0.2,0.3,0.2,0.5v1.1h-0.5v-1c0-0.1,0-0.2-0.1-0.3c-0.1-0.1-0.2-0.1-0.3-0.1c-0.1,0-0.1,0-0.2,0c-0.1,0-0.1,0.1-0.2,0.1
			v1.2H25.3z"/>
		<path class="st10" d="M28.1,10.5c-0.1,0-0.2,0-0.4-0.1c-0.1,0-0.2-0.1-0.3-0.2c-0.1-0.1-0.1-0.2-0.2-0.3c0-0.1-0.1-0.2-0.1-0.4
			c0-0.1,0-0.2,0.1-0.4c0-0.1,0.1-0.2,0.2-0.3c0.1-0.1,0.2-0.1,0.3-0.2s0.2-0.1,0.4-0.1c0.1,0,0.2,0,0.3,0c0.1,0,0.2,0.1,0.2,0.1
			V8.7h0.5v1.8c0,0.2-0.1,0.4-0.2,0.5c-0.2,0.1-0.4,0.2-0.7,0.2c-0.1,0-0.3,0-0.4,0c-0.1,0-0.2-0.1-0.3-0.1l0.2-0.4
			c0.1,0,0.2,0.1,0.3,0.1c0.1,0,0.2,0,0.3,0c0.1,0,0.2,0,0.3-0.1c0.1-0.1,0.1-0.1,0.1-0.3v-0.1c-0.1,0.1-0.1,0.1-0.2,0.1
			C28.3,10.5,28.2,10.5,28.1,10.5z M27.7,9.6c0,0.1,0,0.3,0.1,0.4c0.1,0.1,0.2,0.1,0.4,0.1c0.1,0,0.2,0,0.2,0s0.1-0.1,0.2-0.1V9.3
			c0,0-0.1-0.1-0.2-0.1s-0.1,0-0.2,0c-0.1,0-0.3,0-0.4,0.1C27.7,9.3,27.7,9.5,27.7,9.6z"/>
	</g>
</g>
</svg>
