<svg width="100" height="100" viewBox="0 0 100 100" fill="none" xmlns="http://www.w3.org/2000/svg">
<g clip-path="url(#clip0_23_37)">
<path d="M0 83.325C0 74.1212 2.23858 66.66 5 66.66H95C97.7614 66.66 100 74.1212 100 83.325C100 92.5288 97.7614 99.99 95 99.99H5C2.23858 99.99 0 92.5288 0 83.325Z" fill="white"/>
<path d="M0 16.665C0 7.46119 2.23858 0 5 0H95C97.7614 0 100 7.46119 100 16.665C100 25.8688 97.7614 33.33 95 33.33H5C2.23858 33.33 0 25.8688 0 16.665Z" fill="white"/>
</g>
<defs>
<clipPath id="clip0_23_37">
<rect width="100" height="100" fill="white"/>
</clipPath>
</defs>
</svg>
