<svg width="100" height="100" viewBox="0 0 100 100" fill="none" xmlns="http://www.w3.org/2000/svg">
<g clip-path="url(#clip0_23_33)">
<path d="M0 88.3333C0 81.89 2.23858 76.6666 5 76.6666H95C97.7614 76.6666 100 81.89 100 88.3333C100 94.7766 97.7614 100 95 100H5C2.23858 100 0 94.7766 0 88.3333Z" fill="white"/>
<path d="M0 50C0 43.5567 2.23858 38.3333 5 38.3333H95C97.7614 38.3333 100 43.5567 100 50C100 56.4433 97.7614 61.6666 95 61.6666H5C2.23858 61.6666 0 56.4433 0 50Z" fill="white"/>
<path d="M0 11.6667C0 5.22335 2.23858 0 5 0H95C97.7614 0 100 5.22335 100 11.6667C100 18.11 97.7614 23.3333 95 23.3333H5C2.23858 23.3333 0 18.11 0 11.6667Z" fill="white"/>
</g>
<defs>
<clipPath id="clip0_23_33">
<rect width="100" height="100" fill="white"/>
</clipPath>
</defs>
</svg>
