<svg width="123" height="120" viewBox="0 0 123 120" fill="none" xmlns="http://www.w3.org/2000/svg">
<g clip-path="url(#clip0_7_5)">
<path fill-rule="evenodd" clip-rule="evenodd" d="M10.38 0H112.5C113.6 0 114.41 0.9 114.49 1.99L122.87 117.45C122.95 118.53 121.97 119.44 120.88 119.44H1.99002C0.910022 119.44 -0.0799781 118.55 2.19396e-05 117.45L8.38002 1.99C8.46002 0.89 9.28002 0 10.38 0ZM33.18 23.77V39.1V39.11H33.17C33.17 46.55 36.23 53.32 41.13 58.23C46.04 63.14 52.81 66.2 60.24 66.2V66.19H60.27H60.29V66.2C67.73 66.2 74.5 63.15 79.41 58.24C84.32 53.33 87.37 46.56 87.38 39.13H87.36V39.1V23.59C84.06 22.51 81.68 19.41 81.68 15.75C81.68 11.19 85.37 7.49 89.93 7.49C94.49 7.49 98.18 11.19 98.18 15.75C98.18 18.7 96.62 21.3 94.29 22.76V39.1V39.13H94.28C94.27 48.47 90.45 56.97 84.31 63.11C78.15 69.27 69.64 73.1 60.29 73.11V73.13H60.27H60.24V73.11C50.9 73.1 42.41 69.28 36.25 63.14C30.09 56.98 26.26 48.47 26.25 39.12H26.24V39.1V22.33C24.25 20.82 22.96 18.44 22.96 15.75C22.96 11.19 26.66 7.49 31.22 7.49C35.78 7.49 39.47 11.19 39.47 15.75C39.49 19.64 36.8 22.89 33.18 23.77Z" fill="white"/>
</g>
<defs>
<clipPath id="clip0_7_5">
<rect width="122.88" height="119.43" fill="white"/>
</clipPath>
</defs>
</svg>
