<svg width="100" height="90" viewBox="0 0 100 90" fill="none" xmlns="http://www.w3.org/2000/svg">
<g clip-path="url(#clip0_1_11)">
<path d="M7.46447 2.53553C9.41708 0.582915 12.9236 0.923647 15.2966 3.29658L92.635 80.635C95.0079 83.0079 95.3486 86.5145 93.396 88.4671C91.4434 90.4197 87.9368 90.079 85.5639 87.7061L8.22551 10.3676C5.85258 7.99471 5.51185 4.48815 7.46447 2.53553Z" fill="white"/>
<path d="M93.4645 2.46447C95.4171 4.41708 95.0764 7.92365 92.7034 10.2966L15.365 87.635C12.9921 90.0079 9.48552 90.3486 7.5329 88.396C5.58028 86.4434 5.92103 82.9368 8.29395 80.5639L85.6324 3.22551C88.0053 0.852579 91.5118 0.511847 93.4645 2.46447Z" fill="white"/>
</g>
<defs>
<clipPath id="clip0_1_11">
<rect width="100" height="90" fill="white"/>
</clipPath>
</defs>
</svg>
